<svg width="70" height="32" viewBox="0 0 70 32" fill="none" xmlns="http://www.w3.org/2000/svg">
<path d="M1.84858 31.0603H0.628113V27.8118H1.84858C2.88758 27.8118 3.38217 28.4322 3.38217 29.4369C3.38217 30.4417 2.89113 31.0603 1.84858 31.0603ZM1.86281 28.1264H1.01774V30.7457H1.86281C2.61537 30.7457 2.99254 30.2987 2.99254 29.4369C2.99254 28.5752 2.61537 28.1264 1.86281 28.1264Z" fill="white"/>
<path d="M3.82367 28.0256C3.8232 27.996 3.82905 27.9666 3.84083 27.9395C3.85261 27.9123 3.87005 27.888 3.89196 27.8682C3.91388 27.8484 3.93976 27.8335 3.96788 27.8246C3.996 27.8156 4.02569 27.8129 4.05495 27.8165C4.08403 27.8138 4.11334 27.8172 4.14102 27.8265C4.1687 27.8358 4.19414 27.8509 4.21572 27.8707C4.23729 27.8904 4.25452 27.9145 4.26631 27.9413C4.2781 27.9682 4.28419 27.9972 4.28419 28.0265C4.28419 28.0559 4.2781 28.0849 4.26631 28.1117C4.25452 28.1386 4.23729 28.1626 4.21572 28.1824C4.19414 28.2022 4.1687 28.2172 4.14102 28.2266C4.11334 28.2359 4.08403 28.2393 4.05495 28.2366C4.02553 28.2402 3.99569 28.2374 3.96744 28.2284C3.9392 28.2194 3.91322 28.2043 3.89128 28.1843C3.86933 28.1643 3.85194 28.1398 3.84027 28.1124C3.8286 28.085 3.82294 28.0554 3.82367 28.0256ZM3.86993 31.065V28.705H4.24532V31.0596L3.86993 31.065Z" fill="white"/>
<path d="M4.73047 29.8152C4.73047 29.1305 5.11653 28.6603 5.74812 28.6603C5.92268 28.6445 6.09761 28.6861 6.24652 28.779C6.39544 28.8719 6.51024 29.011 6.57362 29.1752V28.705H6.92944V30.904C6.92944 31.6299 6.54338 32 5.84953 32C5.19126 32 4.85501 31.6674 4.85501 31.1829H5.20371C5.23573 31.5405 5.47591 31.739 5.87087 31.739C6.30142 31.739 6.55583 31.5065 6.55583 30.9863V30.4767C6.42418 30.8039 6.14841 30.9684 5.74812 30.9684C5.11653 30.9684 4.73047 30.4982 4.73047 29.8152ZM6.55583 29.8152C6.55583 29.2395 6.2605 28.9338 5.82996 28.9338C5.39941 28.9338 5.10764 29.2395 5.10764 29.8152C5.10764 30.3909 5.40297 30.6948 5.82996 30.6948C6.25694 30.6948 6.55583 30.3891 6.55583 29.8152Z" fill="white"/>
<path d="M7.46521 28.0256C7.46474 27.996 7.47059 27.9666 7.48237 27.9395C7.49415 27.9123 7.51159 27.888 7.5335 27.8682C7.55542 27.8484 7.5813 27.8335 7.60942 27.8246C7.63754 27.8156 7.66723 27.8129 7.69649 27.8165C7.72557 27.8138 7.75488 27.8172 7.78256 27.8265C7.81024 27.8358 7.83568 27.8509 7.85726 27.8707C7.87883 27.8904 7.89606 27.9145 7.90785 27.9413C7.91964 27.9682 7.92573 27.9972 7.92573 28.0265C7.92573 28.0559 7.91964 28.0849 7.90785 28.1117C7.89606 28.1386 7.87883 28.1626 7.85726 28.1824C7.83568 28.2022 7.81024 28.2172 7.78256 28.2266C7.75488 28.2359 7.72557 28.2393 7.69649 28.2366C7.66708 28.2402 7.63723 28.2374 7.60898 28.2284C7.58074 28.2194 7.55476 28.2043 7.53282 28.1843C7.51087 28.1643 7.49348 28.1398 7.48181 28.1124C7.47014 28.085 7.46448 28.0554 7.46521 28.0256ZM7.50969 31.065V28.705H7.88686V31.0596L7.50969 31.065Z" fill="white"/>
<path d="M8.66745 30.5126V28.9768H8.26715V28.7015H8.66745V27.9863H9.04462V28.7015H9.60681V28.9768H9.04462V30.5179C9.04462 30.7468 9.12112 30.8004 9.3613 30.8004L9.60681 30.7915V31.0561C9.51608 31.0561 9.36664 31.0793 9.2848 31.0793C8.83468 31.0829 8.66745 30.9435 8.66745 30.5126Z" fill="white"/>
<path d="M9.97021 30.3944C9.97021 30.0475 10.189 29.7776 10.7601 29.7275L11.1925 29.6918C11.5091 29.6631 11.5999 29.5952 11.5999 29.4218C11.5999 29.1214 11.4326 28.9337 11.0412 28.9337C10.6854 28.9337 10.4879 29.0892 10.4612 29.4218H10.1054C10.1054 28.9569 10.3901 28.6602 11.0448 28.6602C11.6995 28.6602 11.9842 28.9569 11.9842 29.4218V30.457C11.9675 30.6607 11.9923 30.8657 12.0571 31.0595H11.7191C11.6332 30.9275 11.5972 30.7689 11.6177 30.6125C11.4913 30.9415 11.2138 31.106 10.8011 31.106C10.2709 31.106 9.97021 30.8324 9.97021 30.3944ZM11.5999 30.0368V29.8044C11.4855 29.8988 11.3403 29.9472 11.1925 29.9403L10.8687 29.9689C10.4968 29.9957 10.3474 30.1477 10.3474 30.3747C10.3474 30.6429 10.5111 30.8449 10.9007 30.8449C11.365 30.8414 11.6088 30.4713 11.6088 30.0332L11.5999 30.0368Z" fill="white"/>
<path d="M12.5536 31.0598V27.8113H12.9317V31.0598H12.5536Z" fill="white"/>
<path d="M17.1579 31.0598L16.8359 30.2392H15.2828L14.9607 31.0598H14.5569L15.8236 27.8113H16.2951L17.5618 31.0598H17.1579ZM16.0567 28.1849L15.3806 29.9335H16.7292L16.0567 28.1849Z" fill="white"/>
<path d="M17.866 30.3443H18.2218C18.2449 30.6357 18.3623 30.8449 18.8356 30.8449C19.3088 30.8449 19.4369 30.6357 19.4369 30.4069C19.4369 30.1781 19.291 30.0887 19.0508 30.0493L18.5918 29.9814C18.1506 29.917 17.9371 29.7525 17.9371 29.3753C17.9371 28.9981 18.1613 28.6602 18.8409 28.6602C19.5205 28.6602 19.75 28.9838 19.75 29.386H19.3942C19.3711 29.1429 19.2999 28.9194 18.8445 28.9194C18.4584 28.9194 18.3107 29.0803 18.3107 29.3485C18.3107 29.5773 18.4388 29.6506 18.6381 29.6775L19.1007 29.7454C19.5365 29.8098 19.8123 29.9778 19.8123 30.389C19.8123 30.8002 19.5579 31.1042 18.8409 31.1042C18.1239 31.1042 17.866 30.7824 17.866 30.3443Z" fill="white"/>
<path d="M20.1986 30.3443H20.5544C20.5776 30.6357 20.695 30.8449 21.1682 30.8449C21.6415 30.8449 21.7571 30.6357 21.7571 30.4069C21.7571 30.1781 21.613 30.0887 21.371 30.0493L20.9138 29.9814C20.4726 29.917 20.2591 29.7525 20.2591 29.3753C20.2591 28.9981 20.4815 28.6602 21.1629 28.6602C21.8443 28.6602 22.0702 28.9838 22.0702 29.386H21.7144C21.6913 29.1429 21.6183 28.9194 21.1647 28.9194C20.7786 28.9194 20.6309 29.0803 20.6309 29.3485C20.6309 29.5773 20.7572 29.6506 20.9583 29.6775L21.4209 29.7454C21.8567 29.8098 22.1325 29.9778 22.1325 30.389C22.1325 30.8002 21.8781 31.1042 21.1611 31.1042C20.4441 31.1042 20.1986 30.7824 20.1986 30.3443Z" fill="white"/>
<path d="M22.5327 29.8831C22.5327 29.1572 22.9045 28.6602 23.6268 28.6602C24.3491 28.6602 24.7263 29.1715 24.7263 29.8276C24.7308 29.8656 24.7308 29.904 24.7263 29.9421H22.9098C22.9098 30.5803 23.2176 30.836 23.6535 30.836C23.8079 30.8478 23.9615 30.8045 24.0872 30.7135C24.2129 30.6226 24.3025 30.4899 24.3402 30.339H24.6765C24.5662 30.8074 24.2442 31.1006 23.6535 31.1006C22.933 31.106 22.5327 30.6393 22.5327 29.8831ZM22.9098 29.6864H24.3491C24.2993 29.1751 24.0307 28.9248 23.6268 28.9248C23.2229 28.9248 22.9596 29.1751 22.9098 29.6918V29.6864Z" fill="white"/>
<path d="M25.3697 30.5126V28.9768H24.9694V28.7015H25.3697V27.9863H25.7469V28.7015H26.3091V28.9768H25.7469V30.5179C25.7469 30.7468 25.8234 30.8004 26.0636 30.8004L26.3091 30.7915V31.0561C26.2184 31.0561 26.0689 31.0793 25.9871 31.0793C25.5387 31.0829 25.3697 30.9435 25.3697 30.5126Z" fill="white"/>
<path d="M31.0803 31.0598V28.1814L29.9097 31.0598H29.577L28.4063 28.1814V31.0598H28.0292V27.8113H28.6376L29.7513 30.4931L30.8579 27.8113H31.4664V31.0598H31.0803Z" fill="white"/>
<path d="M31.9708 30.3944C31.9708 30.0475 32.1897 29.7776 32.7607 29.7275L33.1931 29.6918C33.5115 29.6631 33.6023 29.5952 33.6023 29.4218C33.6023 29.1214 33.4244 28.9337 33.0436 28.9337C32.6878 28.9337 32.4885 29.0892 32.4619 29.4218H32.106C32.106 28.9569 32.3925 28.6602 33.0454 28.6602C33.6983 28.6602 33.9848 28.9569 33.9848 29.4218V30.457C33.9691 30.6607 33.9938 30.8655 34.0577 31.0595H33.7268C33.6417 30.9272 33.6064 30.7687 33.6272 30.6125C33.4991 30.9415 33.2233 31.106 32.8088 31.106C32.2715 31.106 31.9708 30.8324 31.9708 30.3944ZM33.6023 30.0368V29.8044C33.487 29.8985 33.3414 29.9468 33.1931 29.9403L32.8711 29.9689C32.4992 29.9957 32.348 30.1477 32.348 30.3747C32.348 30.6429 32.5117 30.8449 32.9031 30.8449C33.3656 30.8414 33.6023 30.4713 33.6023 30.0332V30.0368Z" fill="white"/>
<path d="M36.0942 31.0596V29.5632C36.0942 29.1717 35.9537 28.9661 35.5765 28.9661C35.1993 28.9661 34.9307 29.2718 34.9307 29.7456V31.0596H34.5588V28.705H34.9147V29.1395C34.9767 28.9892 35.084 28.8622 35.2215 28.7762C35.359 28.6903 35.5199 28.6498 35.6815 28.6603C36.2152 28.6603 36.4714 28.9339 36.4714 29.5042V31.0596H36.0942Z" fill="white"/>
<path d="M36.9559 30.3944C36.9559 30.0475 37.1747 29.7776 37.7458 29.7275L38.1781 29.6918C38.4966 29.6631 38.5873 29.5952 38.5873 29.4218C38.5873 29.1214 38.4183 28.9337 38.0287 28.9337C37.6729 28.9337 37.4736 29.0892 37.4469 29.4218H37.0911C37.0911 28.9569 37.3775 28.6602 38.0305 28.6602C38.6834 28.6602 38.9698 28.9569 38.9698 29.4218V30.457C38.9541 30.6607 38.9789 30.8655 39.0428 31.0595H38.7047C38.6196 30.9272 38.5843 30.7687 38.6051 30.6125C38.477 30.9415 38.2012 31.106 37.7867 31.106C37.2565 31.106 36.9559 30.8324 36.9559 30.3944ZM38.5873 30.0368V29.8044C38.4721 29.8985 38.3265 29.9468 38.1781 29.9403L37.8561 29.9689C37.4843 29.9957 37.333 30.1477 37.333 30.3747C37.333 30.6429 37.4967 30.8449 37.8881 30.8449C38.3507 30.8414 38.5873 30.4713 38.5873 30.0332V30.0368Z" fill="white"/>
<path d="M39.4499 29.8153C39.4499 29.1305 39.8342 28.6603 40.4658 28.6603C40.6406 28.6444 40.8158 28.686 40.965 28.7789C41.1142 28.8718 41.2293 29.0109 41.2931 29.1752V28.705H41.6489V30.9041C41.6489 31.6299 41.2628 32 40.569 32C39.9107 32 39.5744 31.6675 39.5744 31.183H39.9196C39.9516 31.5405 40.1918 31.739 40.5867 31.739C41.0191 31.739 41.2717 31.5066 41.2717 30.9863V30.4768C41.14 30.8039 40.8643 30.9684 40.464 30.9684C39.8342 30.9684 39.4499 30.4982 39.4499 29.8153ZM41.2735 29.8153C41.2735 29.2396 40.9799 28.9338 40.5476 28.9338C40.1153 28.9338 39.8253 29.2396 39.8253 29.8153C39.8253 30.391 40.1206 30.6949 40.5476 30.6949C40.9746 30.6949 41.2735 30.3892 41.2735 29.8153Z" fill="white"/>
<path d="M42.1362 29.8831C42.1362 29.1572 42.508 28.6602 43.2303 28.6602C43.9526 28.6602 44.3298 29.1715 44.3298 29.8276C44.3343 29.8656 44.3343 29.904 44.3298 29.9421H42.5133C42.5133 30.5803 42.8229 30.836 43.2588 30.836C43.4129 30.8474 43.5661 30.8038 43.6914 30.7129C43.8167 30.622 43.906 30.4896 43.9437 30.339H44.28C44.1697 30.8074 43.8477 31.1006 43.2588 31.1006C42.5365 31.106 42.1362 30.6393 42.1362 29.8831ZM42.5133 29.6864H43.9526C43.9028 29.1751 43.6342 28.9248 43.2303 28.9248C42.8265 28.9248 42.5649 29.1751 42.5133 29.6918V29.6864Z" fill="white"/>
<path d="M47.504 31.0597V29.5543C47.504 29.1628 47.3848 28.9661 47.0717 28.9661C46.7585 28.9661 46.513 29.2629 46.513 29.7367V31.0597H46.1572V29.5543C46.1572 29.1628 46.0344 28.9661 45.7302 28.9661C45.426 28.9661 45.1805 29.2629 45.1805 29.7367V31.0597H44.8246V28.7051H45.1805V29.1396C45.2254 28.9988 45.3142 28.8763 45.4336 28.79C45.5531 28.7037 45.697 28.6583 45.8441 28.6604C45.9957 28.6446 46.1476 28.6884 46.2677 28.7828C46.3878 28.8772 46.4668 29.0147 46.4881 29.1664C46.5334 29.0174 46.6259 28.8874 46.7514 28.7961C46.877 28.7047 47.0288 28.6571 47.1837 28.6604C47.6517 28.6604 47.874 28.9339 47.874 29.5043V31.0597H47.504Z" fill="white"/>
<path d="M48.3525 29.8831C48.3525 29.1572 48.7243 28.6602 49.4466 28.6602C50.1689 28.6602 50.5443 29.1715 50.5443 29.8276C50.5459 29.866 50.5429 29.9044 50.5354 29.9421H48.7279C48.7385 30.5803 49.0374 30.836 49.4733 30.836C49.6275 30.8478 49.7809 30.8043 49.9062 30.7134C50.0316 30.6224 50.1209 30.4898 50.1583 30.339H50.4945C50.386 30.8074 50.064 31.1006 49.4733 31.1006C48.751 31.106 48.3525 30.6393 48.3525 29.8831ZM48.7279 29.6864H50.1672C50.1174 29.1751 49.8505 28.9248 49.4466 28.9248C49.0428 28.9248 48.7795 29.1751 48.7279 29.6918V29.6864Z" fill="white"/>
<path d="M52.5689 31.0596V29.5632C52.5689 29.1717 52.4283 28.9661 52.053 28.9661C51.6776 28.9661 51.4071 29.2718 51.4071 29.7456V31.0596H51.03V28.705H51.3858V29.1395C51.4478 28.9892 51.5552 28.8622 51.6927 28.7762C51.8302 28.6903 51.991 28.6498 52.1526 28.6603C52.6863 28.6603 52.9425 28.9339 52.9425 29.5042V31.0596H52.5689Z" fill="white"/>
<path d="M53.6828 30.5126V28.9768H53.2825V28.7015H53.6828V27.9863H54.06V28.7015H54.6222V28.9768H54.06V30.5179C54.06 30.7468 54.1365 30.8004 54.3767 30.8004L54.6222 30.7915V31.0561C54.5315 31.0561 54.382 31.0793 54.3002 31.0793C53.8501 31.0829 53.6828 30.9435 53.6828 30.5126Z" fill="white"/>
<path d="M56.2161 29.4362C56.2161 28.4457 56.7373 27.7664 57.7496 27.7664C58.6267 27.7664 59.1729 28.3027 59.1729 28.9428H58.8171C58.7584 28.4547 58.4079 28.09 57.7585 28.09C57.006 28.09 56.6146 28.5781 56.6146 29.4362C56.6146 30.2944 57.006 30.7825 57.7585 30.7825C58.399 30.7825 58.7584 30.4356 58.8171 29.9011H59.1729C59.1729 30.5626 58.6517 31.1061 57.7496 31.1061C56.7373 31.1061 56.2161 30.4249 56.2161 29.4362Z" fill="white"/>
<path d="M59.5605 29.8831C59.5605 29.1572 59.9341 28.6602 60.6546 28.6602C61.3752 28.6602 61.7541 29.1715 61.7541 29.8276C61.7557 29.866 61.7527 29.9044 61.7452 29.9421H59.9377C59.9466 30.5803 60.2472 30.836 60.6831 30.836C60.8372 30.8474 60.9904 30.8038 61.1157 30.7129C61.241 30.622 61.3304 30.4896 61.3681 30.339H61.7043C61.5958 30.8074 61.272 31.1006 60.6831 31.1006C59.9608 31.106 59.5605 30.6393 59.5605 29.8831ZM59.9377 29.6864H61.377C61.3271 29.1751 61.0585 28.9248 60.6546 28.9248C60.2508 28.9248 59.9875 29.1751 59.9377 29.6918V29.6864Z" fill="white"/>
<path d="M63.779 31.0596V29.5632C63.779 29.1717 63.6385 28.9661 63.2613 28.9661C62.8841 28.9661 62.6173 29.2718 62.6173 29.7456V31.0596H62.2401V28.705H62.5959V29.1395C62.658 28.9892 62.7653 28.8622 62.9028 28.7762C63.0403 28.6903 63.2011 28.6498 63.3627 28.6603C63.8965 28.6603 64.1527 28.9339 64.1527 29.5042V31.0596H63.779Z" fill="white"/>
<path d="M64.8912 30.5126V28.9768H64.4927V28.7015H64.8912V27.9863H65.2684V28.7015H65.8323V28.9768H65.2684V30.5179C65.2684 30.7468 65.3449 30.8004 65.5868 30.8004L65.8323 30.7915V31.0561C65.7416 31.0561 65.5904 31.0793 65.5085 31.0793C65.0602 31.0829 64.8912 30.9435 64.8912 30.5126Z" fill="white"/>
<path d="M66.0637 29.8831C66.0637 29.1572 66.4356 28.6602 67.1579 28.6602C67.8802 28.6602 68.2556 29.1715 68.2556 29.8276C68.2601 29.8656 68.2601 29.904 68.2556 29.9421H66.4391C66.4498 30.5803 66.7487 30.836 67.1846 30.836C67.3387 30.8478 67.4921 30.8043 67.6175 30.7134C67.7429 30.6224 67.8321 30.4898 67.8695 30.339H68.2058C68.0972 30.8074 67.7752 31.1006 67.1846 31.1006C66.4622 31.106 66.0637 30.6393 66.0637 29.8831ZM66.4391 29.6864H67.8784C67.8286 29.1751 67.5617 28.9248 67.1668 28.9248C66.7718 28.9248 66.4907 29.1751 66.4391 29.6918V29.6864Z" fill="white"/>
<path d="M68.7404 31.0597V28.705H69.0962V29.2629C69.2226 28.8517 69.436 28.6836 69.7865 28.6836C69.8582 28.6849 69.9296 28.6921 70 28.705V29.034H69.7723C69.3738 29.034 69.114 29.354 69.114 29.9279V31.0632L68.7404 31.0597Z" fill="white"/>
<path d="M34.6813 22.0387V11.7138C34.6813 11.4767 34.5876 11.2493 34.4207 11.0817C34.2539 10.9141 34.0277 10.8199 33.7917 10.8199H31.5536C31.3177 10.8199 31.0914 10.7257 30.9246 10.558C30.7578 10.3904 30.6641 10.163 30.6641 9.92594V7.67323C30.6641 7.43614 30.7578 7.20877 30.9246 7.04112C31.0914 6.87348 31.3177 6.7793 31.5536 6.7793H41.8297C42.0656 6.7793 42.2919 6.87348 42.4587 7.04112C42.6255 7.20877 42.7193 7.43614 42.7193 7.67323V9.92058C42.7193 10.1577 42.6255 10.385 42.4587 10.5527C42.2919 10.7203 42.0656 10.8145 41.8297 10.8145H39.5934C39.3575 10.8145 39.1312 10.9087 38.9644 11.0763C38.7976 11.244 38.7038 11.4714 38.7038 11.7084V22.0334C38.7038 22.2704 38.6101 22.4978 38.4433 22.6655C38.2765 22.8331 38.0502 22.9273 37.8143 22.9273H35.5744C35.3388 22.9282 35.1124 22.8352 34.945 22.6686C34.7775 22.502 34.6827 22.2755 34.6813 22.0387Z" fill="white"/>
<path d="M44.0256 22.0382V19.7926C44.0256 19.5555 44.1193 19.3281 44.2861 19.1605C44.4529 18.9928 44.6792 18.8987 44.9151 18.8987H51.1705C51.4064 18.8987 51.6326 18.8045 51.7995 18.6368C51.9663 18.4692 52.06 18.2418 52.06 18.0047V17.7777C52.06 17.5406 51.9663 17.3132 51.7995 17.1456C51.6326 16.9779 51.4064 16.8837 51.1705 16.8837H46.036C45.7717 16.889 45.5093 16.84 45.2645 16.7398C45.0198 16.6395 44.798 16.4902 44.6127 16.3009C44.4262 16.1132 44.2788 15.8901 44.1792 15.6445C44.0797 15.3989 44.0298 15.1358 44.0327 14.8706V8.79543C44.0282 8.53161 44.0773 8.26965 44.1771 8.02556C44.2768 7.78148 44.425 7.5604 44.6127 7.37586C44.7971 7.18431 45.0184 7.03244 45.2631 6.92948C45.5078 6.82652 45.7707 6.77462 46.036 6.77693H55.1966C55.4325 6.77693 55.6587 6.87111 55.8256 7.03876C55.9924 7.2064 56.0861 7.43378 56.0861 7.67086V9.92C56.0861 10.1571 55.9924 10.3845 55.8256 10.5521C55.6587 10.7197 55.4325 10.8139 55.1966 10.8139H48.9377C48.7018 10.8139 48.4755 10.9081 48.3087 11.0758C48.1418 11.2434 48.0481 11.4708 48.0481 11.7079V11.9385C48.0481 12.1756 48.1418 12.403 48.3087 12.5706C48.4755 12.7382 48.7018 12.8324 48.9377 12.8324H54.0757C54.3396 12.8284 54.6015 12.8796 54.8447 12.9827C55.0879 13.0858 55.3071 13.2386 55.4883 13.4314C55.679 13.6149 55.8304 13.8356 55.9332 14.0801C56.036 14.3245 56.088 14.5874 56.0861 14.8527V20.9118C56.0906 21.1787 56.04 21.4436 55.9374 21.6898C55.8348 21.936 55.6825 22.1581 55.4901 22.3421C55.3057 22.5297 55.0856 22.6782 54.8429 22.7786C54.6003 22.8791 54.3399 22.9294 54.0775 22.9267H44.9169C44.6816 22.9272 44.4557 22.834 44.2886 22.6674C44.1216 22.5009 44.027 22.2746 44.0256 22.0382Z" fill="white"/>
<path d="M57.3886 22.0381V19.7926C57.3886 19.5555 57.4823 19.3281 57.6491 19.1605C57.8159 18.9928 58.0422 18.8987 58.2781 18.8987H64.5334C64.7694 18.8987 64.9956 18.8045 65.1625 18.6368C65.3293 18.4692 65.423 18.2418 65.423 18.0047V17.7777C65.423 17.5406 65.3293 17.3132 65.1625 17.1456C64.9956 16.9779 64.7694 16.8837 64.5334 16.8837H59.3989C59.1347 16.889 58.8722 16.84 58.6275 16.7398C58.3828 16.6395 58.161 16.4902 57.9757 16.3009C57.7892 16.1132 57.6418 15.8901 57.5422 15.6445C57.4426 15.3989 57.3928 15.1358 57.3957 14.8706V8.79543C57.3912 8.53161 57.4403 8.26965 57.54 8.02556C57.6398 7.78148 57.788 7.5604 57.9757 7.37586C58.1601 7.18431 58.3814 7.03244 58.6261 6.92948C58.8708 6.82652 59.1337 6.77462 59.3989 6.77693H68.556C68.7919 6.77693 69.0182 6.87111 69.185 7.03876C69.3518 7.2064 69.4456 7.43378 69.4456 7.67086V9.92C69.4456 10.1571 69.3518 10.3845 69.185 10.5521C69.0182 10.7197 68.7919 10.8139 68.556 10.8139H62.3007C62.0647 10.8139 61.8385 10.9081 61.6717 11.0758C61.5048 11.2434 61.4111 11.4708 61.4111 11.7079V11.9385C61.4111 12.1756 61.5048 12.403 61.6717 12.5706C61.8385 12.7382 62.0647 12.8324 62.3007 12.8324H67.4369C67.7011 12.8283 67.9633 12.8793 68.2068 12.9825C68.4503 13.0856 68.6698 13.2384 68.8513 13.4314C69.0428 13.6161 69.1945 13.8383 69.297 14.0844C69.3995 14.3304 69.4507 14.595 69.4473 14.8617V20.9207C69.4519 21.1876 69.4012 21.4525 69.2986 21.6987C69.196 21.9449 69.0437 22.167 68.8513 22.351C68.6667 22.5389 68.4463 22.6875 68.2033 22.7879C67.9603 22.8884 67.6997 22.9386 67.4369 22.9357H58.2799C58.1626 22.9359 58.0465 22.9128 57.9381 22.8678C57.8297 22.8227 57.7313 22.7566 57.6485 22.6732C57.5656 22.5898 57.5 22.4907 57.4554 22.3817C57.4108 22.2728 57.3881 22.156 57.3886 22.0381Z" fill="white"/>
<path d="M16.1713 6.88674H16.1002C16.0699 6.88674 16.0415 6.88674 16.0112 6.88674C15.0203 6.88674 14.07 6.49117 13.3694 5.78706C12.6687 5.08295 12.2751 4.12798 12.2751 3.13222C12.2751 3.09467 12.2751 3.05713 12.2751 3.01958C12.2768 2.41917 12.0999 1.83194 11.767 1.33334C11.4342 0.834745 10.9605 0.447553 10.407 0.221511C9.8535 -0.00453019 9.24537 -0.0590968 8.66075 0.0648221C8.07614 0.188741 7.54175 0.485485 7.12624 0.91693C6.71072 1.34837 6.43306 1.89481 6.32893 2.48604C6.22481 3.07727 6.29896 3.68628 6.54187 4.23484C6.78479 4.78339 7.18536 5.24643 7.69213 5.56447C8.19891 5.88251 8.78873 6.04101 9.38583 6.01962C10.3767 6.01962 11.327 6.41519 12.0277 7.11929C12.7283 7.8234 13.1219 8.77838 13.1219 9.77414C13.1219 9.81347 13.1219 9.8528 13.1219 9.89214C13.1221 10.484 13.2961 11.0627 13.6222 11.5556C13.9483 12.0484 14.4119 12.4336 14.955 12.6627C15.4981 12.8918 16.0963 12.9546 16.6748 12.8434C17.2533 12.7321 17.7862 12.4517 18.2067 12.0373C18.6272 11.6228 18.9166 11.0928 19.0385 10.5138C19.1604 9.93474 19.1095 9.3324 18.8921 8.78231C18.6748 8.23223 18.3006 7.75889 17.8166 7.42167C17.3325 7.08445 16.7602 6.89836 16.1713 6.88674Z" fill="#F9C338"/>
<path d="M5.98063 16.0709V15.9976C5.98063 15.9672 5.98063 15.9386 5.98063 15.9082C5.98063 14.9125 6.37425 13.9575 7.07491 13.2534C7.77557 12.5493 8.72586 12.1537 9.71674 12.1537C9.75411 12.1537 9.78969 12.1537 9.82705 12.1537C10.4092 12.1543 10.9789 11.984 11.4661 11.6638C11.9533 11.3435 12.3369 10.8873 12.5697 10.351C12.8024 9.81479 12.8743 9.2219 12.7765 8.64518C12.6786 8.06846 12.4152 7.53301 12.0188 7.1046C11.6223 6.67619 11.11 6.37346 10.5447 6.23359C9.97936 6.09372 9.38572 6.1228 8.83664 6.31725C8.28755 6.51171 7.80694 6.86309 7.45381 7.32822C7.10068 7.79335 6.89041 8.352 6.84883 8.93555C6.84883 9.03925 6.84883 9.14295 6.84883 9.24485C6.84883 10.2406 6.4552 11.1956 5.75454 11.8997C5.05389 12.6038 4.10359 12.9994 3.11271 12.9994C3.07357 12.9994 3.03443 12.9994 2.99351 12.9994C2.40469 12.9988 1.82881 13.1729 1.33806 13.4999C0.847309 13.8269 0.463524 14.2922 0.234818 14.8374C0.00611148 15.3827 -0.0573394 15.9836 0.0524195 16.565C0.162178 17.1463 0.440263 17.6822 0.851812 18.1054C1.26336 18.5286 1.79006 18.8202 2.36589 18.9439C2.94171 19.0675 3.54103 19.0175 4.08873 18.8003C4.63642 18.583 5.10811 18.2081 5.44467 17.7226C5.78122 17.2371 5.96766 16.6625 5.98063 16.0709Z" fill="#F28D2F"/>
<path d="M16.0557 19.2694H15.9845C15.9543 19.2694 15.924 19.2694 15.8938 19.2694C14.9029 19.2694 13.9526 18.8739 13.2519 18.1698C12.5513 17.4657 12.1577 16.5107 12.1577 15.5149C12.1577 15.4774 12.1577 15.4398 12.1577 15.4023C12.1594 14.802 11.9826 14.2149 11.6499 13.7164C11.3172 13.2178 10.8438 12.8306 10.2905 12.6045C9.73719 12.3783 9.12923 12.3235 8.54471 12.4471C7.96018 12.5707 7.42576 12.8671 7.01009 13.2982C6.59441 13.7293 6.31645 14.2754 6.2119 14.8664C6.10735 15.4574 6.18098 16.0663 6.42334 16.6149C6.66571 17.1636 7.06573 17.6269 7.57205 17.9454C8.07837 18.2639 8.66786 18.423 9.26484 18.4023C10.2557 18.4023 11.206 18.7979 11.9067 19.502C12.6073 20.2061 13.001 21.1611 13.001 22.1568C13.001 22.1962 13.001 22.2355 13.001 22.2748C13 22.8667 13.173 23.4457 13.4983 23.9391C13.8235 24.4326 14.2865 24.8185 14.8292 25.0486C15.3718 25.2786 15.97 25.3426 16.5486 25.2323C17.1273 25.1221 17.6607 24.8426 18.0819 24.4289C18.5031 24.0152 18.7934 23.4858 18.9164 22.907C19.0394 22.3281 18.9895 21.7257 18.7731 21.1752C18.5567 20.6248 18.1834 20.1508 17.6999 19.8127C17.2165 19.4746 16.6445 19.2875 16.0557 19.2748V19.2694Z" fill="#237BFF"/>
<path d="M18.4235 16.1713V16.098C18.4235 16.0676 18.4235 16.039 18.4235 16.0086C18.4235 15.0128 18.8171 14.0578 19.5178 13.3537C20.2184 12.6496 21.1687 12.2541 22.1596 12.2541C22.197 12.2541 22.2326 12.2541 22.2699 12.2541C22.8521 12.2546 23.4218 12.0844 23.909 11.7641C24.3962 11.4439 24.7798 10.9876 25.0125 10.4514C25.2453 9.91514 25.3172 9.32225 25.2193 8.74552C25.1215 8.1688 24.8581 7.63336 24.4616 7.20494C24.0652 6.77653 23.5528 6.4738 22.9875 6.33393C22.4222 6.19406 21.8286 6.22314 21.2795 6.4176C20.7304 6.61206 20.2498 6.96343 19.8967 7.42856C19.5436 7.8937 19.3333 8.45234 19.2917 9.03589C19.2917 9.14138 19.2917 9.24507 19.2917 9.34698C19.2917 10.3427 18.8981 11.2977 18.1974 12.0018C17.4968 12.7059 16.5465 13.1015 15.5556 13.1015C15.5164 13.1015 15.4773 13.1015 15.4364 13.1015C14.8476 13.1009 14.2717 13.2751 13.7809 13.602C13.2902 13.929 12.9064 14.3943 12.6777 14.9396C12.449 15.4848 12.3855 16.0858 12.4953 16.6671C12.605 17.2485 12.8831 17.7843 13.2947 18.2075C13.7062 18.6307 14.2329 18.9224 14.8088 19.046C15.3846 19.1696 15.9839 19.1197 16.5316 18.9024C17.0793 18.6851 17.551 18.3103 17.8875 17.8247C18.2241 17.3392 18.4105 16.7646 18.4235 16.1731V16.1713Z" fill="#0047B0"/>
</svg>
