<svg width="70" height="32" viewBox="0 0 70 32" fill="none" xmlns="http://www.w3.org/2000/svg">
<path d="M1.84852 31.0603H0.628052V27.8118H1.84852C2.88751 27.8118 3.38211 28.4322 3.38211 29.4369C3.38211 30.4417 2.89107 31.0603 1.84852 31.0603ZM1.86275 28.1264H1.01768V30.7457H1.86275C2.61531 30.7457 2.99248 30.2987 2.99248 29.4369C2.99248 28.5752 2.61531 28.1264 1.86275 28.1264Z" fill="#11142D"/>
<path d="M3.82355 28.0256C3.82308 27.996 3.82893 27.9666 3.84071 27.9395C3.85249 27.9123 3.86993 27.888 3.89184 27.8682C3.91376 27.8484 3.93964 27.8335 3.96776 27.8246C3.99587 27.8156 4.02556 27.8129 4.05483 27.8165C4.08391 27.8138 4.11322 27.8172 4.1409 27.8265C4.16858 27.8358 4.19402 27.8509 4.21559 27.8707C4.23717 27.8904 4.2544 27.9145 4.26619 27.9413C4.27798 27.9682 4.28407 27.9972 4.28407 28.0265C4.28407 28.0559 4.27798 28.0849 4.26619 28.1117C4.2544 28.1386 4.23717 28.1626 4.21559 28.1824C4.19402 28.2022 4.16858 28.2172 4.1409 28.2266C4.11322 28.2359 4.08391 28.2393 4.05483 28.2366C4.02541 28.2402 3.99557 28.2374 3.96732 28.2284C3.93908 28.2194 3.9131 28.2043 3.89116 28.1843C3.86921 28.1643 3.85181 28.1398 3.84015 28.1124C3.82848 28.085 3.82282 28.0554 3.82355 28.0256ZM3.86981 31.065V28.705H4.2452V31.0596L3.86981 31.065Z" fill="#11142D"/>
<path d="M4.73035 29.8152C4.73035 29.1305 5.11641 28.6603 5.74799 28.6603C5.92255 28.6445 6.09749 28.6861 6.2464 28.779C6.39531 28.8719 6.51012 29.011 6.5735 29.1752V28.705H6.92932V30.904C6.92932 31.6299 6.54325 32 5.8494 32C5.19113 32 4.85488 31.6674 4.85488 31.1829H5.20359C5.23561 31.5405 5.47579 31.739 5.87075 31.739C6.3013 31.739 6.55571 31.5065 6.55571 30.9863V30.4767C6.42405 30.8039 6.14829 30.9684 5.74799 30.9684C5.11641 30.9684 4.73035 30.4982 4.73035 29.8152ZM6.55571 29.8152C6.55571 29.2395 6.26038 28.9338 5.82983 28.9338C5.39929 28.9338 5.10752 29.2395 5.10752 29.8152C5.10752 30.3909 5.40285 30.6948 5.82983 30.6948C6.25682 30.6948 6.55571 30.3891 6.55571 29.8152Z" fill="#11142D"/>
<path d="M7.46515 28.0256C7.46468 27.996 7.47053 27.9666 7.48231 27.9395C7.49409 27.9123 7.51153 27.888 7.53344 27.8682C7.55536 27.8484 7.58124 27.8335 7.60936 27.8246C7.63747 27.8156 7.66717 27.8129 7.69643 27.8165C7.72551 27.8138 7.75482 27.8172 7.7825 27.8265C7.81018 27.8358 7.83562 27.8509 7.85719 27.8707C7.87877 27.8904 7.896 27.9145 7.90779 27.9413C7.91958 27.9682 7.92567 27.9972 7.92567 28.0265C7.92567 28.0559 7.91958 28.0849 7.90779 28.1117C7.896 28.1386 7.87877 28.1626 7.85719 28.1824C7.83562 28.2022 7.81018 28.2172 7.7825 28.2266C7.75482 28.2359 7.72551 28.2393 7.69643 28.2366C7.66701 28.2402 7.63717 28.2374 7.60892 28.2284C7.58068 28.2194 7.5547 28.2043 7.53276 28.1843C7.51081 28.1643 7.49342 28.1398 7.48175 28.1124C7.47008 28.085 7.46442 28.0554 7.46515 28.0256ZM7.50963 31.065V28.705H7.8868V31.0596L7.50963 31.065Z" fill="#11142D"/>
<path d="M8.66739 30.5126V28.9768H8.26709V28.7015H8.66739V27.9863H9.04456V28.7015H9.60675V28.9768H9.04456V30.5179C9.04456 30.7468 9.12106 30.8004 9.36124 30.8004L9.60675 30.7915V31.0561C9.51602 31.0561 9.36657 31.0793 9.28474 31.0793C8.83462 31.0829 8.66739 30.9435 8.66739 30.5126Z" fill="#11142D"/>
<path d="M9.97009 30.3944C9.97009 30.0475 10.1889 29.7776 10.76 29.7275L11.1923 29.6918C11.509 29.6631 11.5998 29.5952 11.5998 29.4218C11.5998 29.1214 11.4325 28.9337 11.0411 28.9337C10.6853 28.9337 10.4878 29.0892 10.4611 29.4218H10.1053C10.1053 28.9569 10.39 28.6602 11.0447 28.6602C11.6994 28.6602 11.984 28.9569 11.984 29.4218V30.457C11.9674 30.6607 11.9922 30.8657 12.057 31.0595H11.719C11.6331 30.9275 11.5971 30.7689 11.6175 30.6125C11.4912 30.9415 11.2137 31.106 10.8009 31.106C10.2708 31.106 9.97009 30.8324 9.97009 30.3944ZM11.5998 30.0368V29.8044C11.4854 29.8988 11.3402 29.9472 11.1923 29.9403L10.8685 29.9689C10.4967 29.9957 10.3473 30.1477 10.3473 30.3747C10.3473 30.6429 10.5109 30.8449 10.9006 30.8449C11.3649 30.8414 11.6086 30.4713 11.6086 30.0332L11.5998 30.0368Z" fill="#11142D"/>
<path d="M12.5536 31.0598V27.8113H12.9316V31.0598H12.5536Z" fill="#11142D"/>
<path d="M17.1578 31.0598L16.8358 30.2392H15.2826L14.9606 31.0598H14.5568L15.8235 27.8113H16.2949L17.5617 31.0598H17.1578ZM16.0565 28.1849L15.3805 29.9335H16.729L16.0565 28.1849Z" fill="#11142D"/>
<path d="M17.866 30.3443H18.2218C18.2449 30.6357 18.3623 30.8449 18.8356 30.8449C19.3088 30.8449 19.4369 30.6357 19.4369 30.4069C19.4369 30.1781 19.291 30.0887 19.0508 30.0493L18.5918 29.9814C18.1506 29.917 17.9371 29.7525 17.9371 29.3753C17.9371 28.9981 18.1613 28.6602 18.8409 28.6602C19.5205 28.6602 19.75 28.9838 19.75 29.386H19.3942C19.3711 29.1429 19.2999 28.9194 18.8445 28.9194C18.4584 28.9194 18.3107 29.0803 18.3107 29.3485C18.3107 29.5773 18.4388 29.6506 18.6381 29.6775L19.1007 29.7454C19.5365 29.8098 19.8123 29.9778 19.8123 30.389C19.8123 30.8002 19.5579 31.1042 18.8409 31.1042C18.1239 31.1042 17.866 30.7824 17.866 30.3443Z" fill="#11142D"/>
<path d="M20.1985 30.3443H20.5543C20.5774 30.6357 20.6949 30.8449 21.1681 30.8449C21.6413 30.8449 21.757 30.6357 21.757 30.4069C21.757 30.1781 21.6129 30.0887 21.3709 30.0493L20.9137 29.9814C20.4725 29.917 20.259 29.7525 20.259 29.3753C20.259 28.9981 20.4814 28.6602 21.1628 28.6602C21.8442 28.6602 22.0701 28.9838 22.0701 29.386H21.7143C21.6912 29.1429 21.6182 28.9194 21.1645 28.9194C20.7785 28.9194 20.6308 29.0803 20.6308 29.3485C20.6308 29.5773 20.7571 29.6506 20.9582 29.6775L21.4207 29.7454C21.8566 29.8098 22.1324 29.9778 22.1324 30.389C22.1324 30.8002 21.878 31.1042 21.161 31.1042C20.444 31.1042 20.1985 30.7824 20.1985 30.3443Z" fill="#11142D"/>
<path d="M22.5326 29.8831C22.5326 29.1572 22.9044 28.6602 23.6267 28.6602C24.3491 28.6602 24.7262 29.1715 24.7262 29.8276C24.7307 29.8656 24.7307 29.904 24.7262 29.9421H22.9098C22.9098 30.5803 23.2175 30.836 23.6534 30.836C23.8078 30.8478 23.9615 30.8045 24.0871 30.7135C24.2128 30.6226 24.3024 30.4899 24.3402 30.339H24.6764C24.5661 30.8074 24.2441 31.1006 23.6534 31.1006C22.9329 31.106 22.5326 30.6393 22.5326 29.8831ZM22.9098 29.6864H24.3491C24.2992 29.1751 24.0306 28.9248 23.6267 28.9248C23.2229 28.9248 22.9596 29.1751 22.9098 29.6918V29.6864Z" fill="#11142D"/>
<path d="M25.3697 30.5126V28.9768H24.9694V28.7015H25.3697V27.9863H25.7468V28.7015H26.309V28.9768H25.7468V30.5179C25.7468 30.7468 25.8233 30.8004 26.0635 30.8004L26.309 30.7915V31.0561C26.2183 31.0561 26.0688 31.0793 25.987 31.0793C25.5387 31.0829 25.3697 30.9435 25.3697 30.5126Z" fill="#11142D"/>
<path d="M31.0802 31.0598V28.1814L29.9096 31.0598H29.5769L28.4062 28.1814V31.0598H28.0291V27.8113H28.6375L29.7512 30.4931L30.8578 27.8113H31.4663V31.0598H31.0802Z" fill="#11142D"/>
<path d="M31.9707 30.3944C31.9707 30.0475 32.1895 29.7776 32.7606 29.7275L33.1929 29.6918C33.5114 29.6631 33.6021 29.5952 33.6021 29.4218C33.6021 29.1214 33.4242 28.9337 33.0435 28.9337C32.6877 28.9337 32.4884 29.0892 32.4617 29.4218H32.1059C32.1059 28.9569 32.3924 28.6602 33.0453 28.6602C33.6982 28.6602 33.9846 28.9569 33.9846 29.4218V30.457C33.9689 30.6607 33.9937 30.8655 34.0576 31.0595H33.7267C33.6416 30.9272 33.6062 30.7687 33.627 30.6125C33.499 30.9415 33.2232 31.106 32.8087 31.106C32.2714 31.106 31.9707 30.8324 31.9707 30.3944ZM33.6021 30.0368V29.8044C33.4869 29.8985 33.3413 29.9468 33.1929 29.9403L32.8709 29.9689C32.4991 29.9957 32.3479 30.1477 32.3479 30.3747C32.3479 30.6429 32.5116 30.8449 32.903 30.8449C33.3655 30.8414 33.6021 30.4713 33.6021 30.0332V30.0368Z" fill="#11142D"/>
<path d="M36.0941 31.0596V29.5632C36.0941 29.1717 35.9535 28.9661 35.5764 28.9661C35.1992 28.9661 34.9305 29.2718 34.9305 29.7456V31.0596H34.5587V28.705H34.9145V29.1395C34.9766 28.9892 35.0839 28.8622 35.2214 28.7762C35.3589 28.6903 35.5197 28.6498 35.6813 28.6603C36.2151 28.6603 36.4713 28.9339 36.4713 29.5042V31.0596H36.0941Z" fill="#11142D"/>
<path d="M36.9558 30.3944C36.9558 30.0475 37.1746 29.7776 37.7457 29.7275L38.1781 29.6918C38.4965 29.6631 38.5873 29.5952 38.5873 29.4218C38.5873 29.1214 38.4182 28.9337 38.0286 28.9337C37.6728 28.9337 37.4735 29.0892 37.4468 29.4218H37.091C37.091 28.9569 37.3775 28.6602 38.0304 28.6602C38.6833 28.6602 38.9698 28.9569 38.9698 29.4218V30.457C38.954 30.6607 38.9788 30.8655 39.0427 31.0595H38.7047C38.6196 30.9272 38.5842 30.7687 38.605 30.6125C38.477 30.9415 38.2012 31.106 37.7867 31.106C37.2565 31.106 36.9558 30.8324 36.9558 30.3944ZM38.5873 30.0368V29.8044C38.472 29.8985 38.3264 29.9468 38.1781 29.9403L37.856 29.9689C37.4842 29.9957 37.333 30.1477 37.333 30.3747C37.333 30.6429 37.4967 30.8449 37.8881 30.8449C38.3506 30.8414 38.5873 30.4713 38.5873 30.0332V30.0368Z" fill="#11142D"/>
<path d="M39.4498 29.8153C39.4498 29.1305 39.8341 28.6603 40.4657 28.6603C40.6405 28.6444 40.8157 28.686 40.9649 28.7789C41.1141 28.8718 41.2293 29.0109 41.293 29.1752V28.705H41.6488V30.9041C41.6488 31.6299 41.2627 32 40.5689 32C39.9106 32 39.5744 31.6675 39.5744 31.183H39.9195C39.9515 31.5405 40.1917 31.739 40.5867 31.739C41.019 31.739 41.2716 31.5066 41.2716 30.9863V30.4768C41.14 30.8039 40.8642 30.9684 40.4639 30.9684C39.8341 30.9684 39.4498 30.4982 39.4498 29.8153ZM41.2734 29.8153C41.2734 29.2396 40.9799 28.9338 40.5475 28.9338C40.1152 28.9338 39.8252 29.2396 39.8252 29.8153C39.8252 30.391 40.1206 30.6949 40.5475 30.6949C40.9745 30.6949 41.2734 30.3892 41.2734 29.8153Z" fill="#11142D"/>
<path d="M42.1361 29.8831C42.1361 29.1572 42.5079 28.6602 43.2303 28.6602C43.9526 28.6602 44.3297 29.1715 44.3297 29.8276C44.3342 29.8656 44.3342 29.904 44.3297 29.9421H42.5133C42.5133 30.5803 42.8228 30.836 43.2587 30.836C43.4128 30.8474 43.566 30.8038 43.6913 30.7129C43.8166 30.622 43.906 30.4896 43.9437 30.339H44.2799C44.1696 30.8074 43.8476 31.1006 43.2587 31.1006C42.5364 31.106 42.1361 30.6393 42.1361 29.8831ZM42.5133 29.6864H43.9526C43.9027 29.1751 43.6341 28.9248 43.2303 28.9248C42.8264 28.9248 42.5649 29.1751 42.5133 29.6918V29.6864Z" fill="#11142D"/>
<path d="M47.5039 31.0597V29.5543C47.5039 29.1628 47.3847 28.9661 47.0716 28.9661C46.7585 28.9661 46.513 29.2629 46.513 29.7367V31.0597H46.1571V29.5543C46.1571 29.1628 46.0344 28.9661 45.7302 28.9661C45.4259 28.9661 45.1804 29.2629 45.1804 29.7367V31.0597H44.8246V28.7051H45.1804V29.1396C45.2254 28.9988 45.3141 28.8763 45.4336 28.79C45.553 28.7037 45.6969 28.6583 45.844 28.6604C45.9957 28.6446 46.1475 28.6884 46.2676 28.7828C46.3877 28.8772 46.4668 29.0147 46.4881 29.1664C46.5334 29.0174 46.6258 28.8874 46.7514 28.7961C46.8769 28.7047 47.0287 28.6571 47.1837 28.6604C47.6516 28.6604 47.874 28.9339 47.874 29.5043V31.0597H47.5039Z" fill="#11142D"/>
<path d="M48.3524 29.8831C48.3524 29.1572 48.7242 28.6602 49.4466 28.6602C50.1689 28.6602 50.5443 29.1715 50.5443 29.8276C50.5458 29.866 50.5428 29.9044 50.5354 29.9421H48.7278C48.7385 30.5803 49.0374 30.836 49.4733 30.836C49.6274 30.8478 49.7808 30.8043 49.9062 30.7134C50.0316 30.6224 50.1208 30.4898 50.1582 30.339H50.4945C50.3859 30.8074 50.0639 31.1006 49.4733 31.1006C48.7509 31.106 48.3524 30.6393 48.3524 29.8831ZM48.7278 29.6864H50.1671C50.1173 29.1751 49.8504 28.9248 49.4466 28.9248C49.0427 28.9248 48.7794 29.1751 48.7278 29.6918V29.6864Z" fill="#11142D"/>
<path d="M52.5688 31.0596V29.5632C52.5688 29.1717 52.4283 28.9661 52.0529 28.9661C51.6775 28.9661 51.4071 29.2718 51.4071 29.7456V31.0596H51.0299V28.705H51.3857V29.1395C51.4478 28.9892 51.5551 28.8622 51.6926 28.7762C51.8301 28.6903 51.9909 28.6498 52.1525 28.6603C52.6863 28.6603 52.9424 28.9339 52.9424 29.5042V31.0596H52.5688Z" fill="#11142D"/>
<path d="M53.6828 30.5126V28.9768H53.2825V28.7015H53.6828V27.9863H54.0599V28.7015H54.6221V28.9768H54.0599V30.5179C54.0599 30.7468 54.1364 30.8004 54.3766 30.8004L54.6221 30.7915V31.0561C54.5314 31.0561 54.382 31.0793 54.3001 31.0793C53.85 31.0829 53.6828 30.9435 53.6828 30.5126Z" fill="#11142D"/>
<path d="M56.2159 29.4362C56.2159 28.4457 56.7372 27.7664 57.7495 27.7664C58.6266 27.7664 59.1728 28.3027 59.1728 28.9428H58.817C58.7583 28.4547 58.4078 28.09 57.7584 28.09C57.0059 28.09 56.6145 28.5781 56.6145 29.4362C56.6145 30.2944 57.0059 30.7825 57.7584 30.7825C58.3989 30.7825 58.7583 30.4356 58.817 29.9011H59.1728C59.1728 30.5626 58.6515 31.1061 57.7495 31.1061C56.7372 31.1061 56.2159 30.4249 56.2159 29.4362Z" fill="#11142D"/>
<path d="M59.5604 29.8831C59.5604 29.1572 59.934 28.6602 60.6546 28.6602C61.3751 28.6602 61.7541 29.1715 61.7541 29.8276C61.7556 29.866 61.7526 29.9044 61.7452 29.9421H59.9376C59.9465 30.5803 60.2472 30.836 60.683 30.836C60.8372 30.8474 60.9904 30.8038 61.1157 30.7129C61.2409 30.622 61.3303 30.4896 61.368 30.339H61.7042C61.5957 30.8074 61.2719 31.1006 60.683 31.1006C59.9607 31.106 59.5604 30.6393 59.5604 29.8831ZM59.9376 29.6864H61.3769C61.3271 29.1751 61.0584 28.9248 60.6546 28.9248C60.2507 28.9248 59.9874 29.1751 59.9376 29.6918V29.6864Z" fill="#11142D"/>
<path d="M63.779 31.0596V29.5632C63.779 29.1717 63.6385 28.9661 63.2613 28.9661C62.8841 28.9661 62.6173 29.2718 62.6173 29.7456V31.0596H62.2401V28.705H62.5959V29.1395C62.658 28.9892 62.7653 28.8622 62.9028 28.7762C63.0403 28.6903 63.2011 28.6498 63.3627 28.6603C63.8965 28.6603 64.1527 28.9339 64.1527 29.5042V31.0596H63.779Z" fill="#11142D"/>
<path d="M64.8912 30.5126V28.9768H64.4927V28.7015H64.8912V27.9863H65.2684V28.7015H65.8323V28.9768H65.2684V30.5179C65.2684 30.7468 65.3449 30.8004 65.5868 30.8004L65.8323 30.7915V31.0561C65.7416 31.0561 65.5904 31.0793 65.5085 31.0793C65.0602 31.0829 64.8912 30.9435 64.8912 30.5126Z" fill="#11142D"/>
<path d="M66.0636 29.8831C66.0636 29.1572 66.4354 28.6602 67.1577 28.6602C67.8801 28.6602 68.2555 29.1715 68.2555 29.8276C68.2599 29.8656 68.2599 29.904 68.2555 29.9421H66.439C66.4497 30.5803 66.7486 30.836 67.1844 30.836C67.3386 30.8478 67.492 30.8043 67.6174 30.7134C67.7427 30.6224 67.832 30.4898 67.8694 30.339H68.2056C68.0971 30.8074 67.7751 31.1006 67.1844 31.1006C66.4621 31.106 66.0636 30.6393 66.0636 29.8831ZM66.439 29.6864H67.8783C67.8285 29.1751 67.5616 28.9248 67.1666 28.9248C66.7717 28.9248 66.4906 29.1751 66.439 29.6918V29.6864Z" fill="#11142D"/>
<path d="M68.7404 31.0597V28.705H69.0962V29.2629C69.2225 28.8517 69.436 28.6836 69.7865 28.6836C69.8581 28.6849 69.9295 28.6921 70 28.705V29.034H69.7722C69.3737 29.034 69.114 29.354 69.114 29.9279V31.0632L68.7404 31.0597Z" fill="#11142D"/>
<path d="M34.6813 22.0387V11.7138C34.6813 11.4767 34.5876 11.2493 34.4207 11.0817C34.2539 10.9141 34.0277 10.8199 33.7917 10.8199H31.5536C31.3177 10.8199 31.0914 10.7257 30.9246 10.558C30.7578 10.3904 30.6641 10.163 30.6641 9.92594V7.67323C30.6641 7.43614 30.7578 7.20877 30.9246 7.04112C31.0914 6.87348 31.3177 6.7793 31.5536 6.7793H41.8297C42.0656 6.7793 42.2919 6.87348 42.4587 7.04112C42.6255 7.20877 42.7193 7.43614 42.7193 7.67323V9.92058C42.7193 10.1577 42.6255 10.385 42.4587 10.5527C42.2919 10.7203 42.0656 10.8145 41.8297 10.8145H39.5934C39.3575 10.8145 39.1312 10.9087 38.9644 11.0763C38.7976 11.244 38.7038 11.4714 38.7038 11.7084V22.0334C38.7038 22.2704 38.6101 22.4978 38.4433 22.6655C38.2765 22.8331 38.0502 22.9273 37.8143 22.9273H35.5744C35.3388 22.9282 35.1124 22.8352 34.945 22.6686C34.7775 22.502 34.6827 22.2755 34.6813 22.0387Z" fill="#11142D"/>
<path d="M44.0255 22.0382V19.7926C44.0255 19.5555 44.1192 19.3281 44.2861 19.1605C44.4529 18.9928 44.6791 18.8987 44.9151 18.8987H51.1704C51.4063 18.8987 51.6326 18.8045 51.7994 18.6368C51.9662 18.4692 52.0599 18.2418 52.0599 18.0047V17.7777C52.0599 17.5406 51.9662 17.3132 51.7994 17.1456C51.6326 16.9779 51.4063 16.8837 51.1704 16.8837H46.0359C45.7717 16.889 45.5092 16.84 45.2645 16.7398C45.0197 16.6395 44.7979 16.4902 44.6126 16.3009C44.4261 16.1132 44.2788 15.8901 44.1792 15.6445C44.0796 15.3989 44.0298 15.1358 44.0326 14.8706V8.79543C44.0281 8.53161 44.0773 8.26965 44.177 8.02556C44.2767 7.78148 44.425 7.5604 44.6126 7.37586C44.7971 7.18431 45.0184 7.03244 45.263 6.92948C45.5077 6.82652 45.7707 6.77462 46.0359 6.77693H55.1965C55.4324 6.77693 55.6587 6.87111 55.8255 7.03876C55.9923 7.2064 56.0861 7.43378 56.0861 7.67086V9.92C56.0861 10.1571 55.9923 10.3845 55.8255 10.5521C55.6587 10.7197 55.4324 10.8139 55.1965 10.8139H48.9376C48.7017 10.8139 48.4754 10.9081 48.3086 11.0758C48.1418 11.2434 48.0481 11.4708 48.0481 11.7079V11.9385C48.0481 12.1756 48.1418 12.403 48.3086 12.5706C48.4754 12.7382 48.7017 12.8324 48.9376 12.8324H54.0757C54.3396 12.8284 54.6014 12.8796 54.8446 12.9827C55.0878 13.0858 55.307 13.2386 55.4883 13.4314C55.679 13.6149 55.8303 13.8356 55.9331 14.0801C56.0359 14.3245 56.088 14.5874 56.0861 14.8527V20.9118C56.0906 21.1787 56.0399 21.4436 55.9374 21.6898C55.8348 21.936 55.6825 22.1581 55.4901 22.3421C55.3056 22.5297 55.0855 22.6782 54.8429 22.7786C54.6002 22.8791 54.3399 22.9294 54.0774 22.9267H44.9168C44.6815 22.9272 44.4556 22.834 44.2886 22.6674C44.1215 22.5009 44.0269 22.2746 44.0255 22.0382Z" fill="#11142D"/>
<path d="M57.3886 22.0381V19.7926C57.3886 19.5555 57.4823 19.3281 57.6491 19.1605C57.8159 18.9928 58.0422 18.8987 58.2781 18.8987H64.5334C64.7694 18.8987 64.9956 18.8045 65.1625 18.6368C65.3293 18.4692 65.423 18.2418 65.423 18.0047V17.7777C65.423 17.5406 65.3293 17.3132 65.1625 17.1456C64.9956 16.9779 64.7694 16.8837 64.5334 16.8837H59.3989C59.1347 16.889 58.8722 16.84 58.6275 16.7398C58.3828 16.6395 58.161 16.4902 57.9757 16.3009C57.7892 16.1132 57.6418 15.8901 57.5422 15.6445C57.4426 15.3989 57.3928 15.1358 57.3957 14.8706V8.79543C57.3912 8.53161 57.4403 8.26965 57.54 8.02556C57.6398 7.78148 57.788 7.5604 57.9757 7.37586C58.1601 7.18431 58.3814 7.03244 58.6261 6.92948C58.8708 6.82652 59.1337 6.77462 59.3989 6.77693H68.556C68.7919 6.77693 69.0182 6.87111 69.185 7.03876C69.3518 7.2064 69.4456 7.43378 69.4456 7.67086V9.92C69.4456 10.1571 69.3518 10.3845 69.185 10.5521C69.0182 10.7197 68.7919 10.8139 68.556 10.8139H62.3007C62.0647 10.8139 61.8385 10.9081 61.6717 11.0758C61.5048 11.2434 61.4111 11.4708 61.4111 11.7079V11.9385C61.4111 12.1756 61.5048 12.403 61.6717 12.5706C61.8385 12.7382 62.0647 12.8324 62.3007 12.8324H67.4369C67.7011 12.8283 67.9633 12.8793 68.2068 12.9825C68.4503 13.0856 68.6698 13.2384 68.8513 13.4314C69.0428 13.6161 69.1945 13.8383 69.297 14.0844C69.3995 14.3304 69.4507 14.595 69.4473 14.8617V20.9207C69.4519 21.1876 69.4012 21.4525 69.2986 21.6987C69.196 21.9449 69.0437 22.167 68.8513 22.351C68.6667 22.5389 68.4463 22.6875 68.2033 22.7879C67.9603 22.8884 67.6997 22.9386 67.4369 22.9357H58.2799C58.1626 22.9359 58.0465 22.9128 57.9381 22.8678C57.8297 22.8227 57.7313 22.7566 57.6485 22.6732C57.5656 22.5898 57.5 22.4907 57.4554 22.3817C57.4108 22.2728 57.3881 22.156 57.3886 22.0381Z" fill="#11142D"/>
<path d="M16.1713 6.88674H16.1002C16.0699 6.88674 16.0415 6.88674 16.0112 6.88674C15.0203 6.88674 14.07 6.49117 13.3694 5.78706C12.6687 5.08295 12.2751 4.12798 12.2751 3.13222C12.2751 3.09467 12.2751 3.05713 12.2751 3.01958C12.2768 2.41917 12.0999 1.83194 11.767 1.33334C11.4342 0.834745 10.9605 0.447553 10.407 0.221511C9.8535 -0.00453019 9.24537 -0.0590968 8.66075 0.0648221C8.07614 0.188741 7.54175 0.485485 7.12624 0.91693C6.71072 1.34837 6.43306 1.89481 6.32893 2.48604C6.22481 3.07727 6.29896 3.68628 6.54187 4.23484C6.78479 4.78339 7.18536 5.24643 7.69213 5.56447C8.19891 5.88251 8.78873 6.04101 9.38583 6.01962C10.3767 6.01962 11.327 6.41519 12.0277 7.11929C12.7283 7.8234 13.1219 8.77838 13.1219 9.77414C13.1219 9.81347 13.1219 9.8528 13.1219 9.89214C13.1221 10.484 13.2961 11.0627 13.6222 11.5556C13.9483 12.0484 14.4119 12.4336 14.955 12.6627C15.4981 12.8918 16.0963 12.9546 16.6748 12.8434C17.2533 12.7321 17.7862 12.4517 18.2067 12.0373C18.6272 11.6228 18.9166 11.0928 19.0385 10.5138C19.1604 9.93474 19.1095 9.3324 18.8921 8.78231C18.6748 8.23223 18.3006 7.75889 17.8166 7.42167C17.3325 7.08445 16.7602 6.89836 16.1713 6.88674Z" fill="#F9C338"/>
<path d="M5.98063 16.0709V15.9976C5.98063 15.9672 5.98063 15.9386 5.98063 15.9082C5.98063 14.9125 6.37425 13.9575 7.07491 13.2534C7.77557 12.5493 8.72586 12.1537 9.71674 12.1537C9.75411 12.1537 9.78969 12.1537 9.82705 12.1537C10.4092 12.1543 10.9789 11.984 11.4661 11.6638C11.9533 11.3435 12.3369 10.8873 12.5697 10.351C12.8024 9.81479 12.8743 9.2219 12.7765 8.64518C12.6786 8.06846 12.4152 7.53301 12.0188 7.1046C11.6223 6.67619 11.11 6.37346 10.5447 6.23359C9.97936 6.09372 9.38572 6.1228 8.83664 6.31725C8.28755 6.51171 7.80694 6.86309 7.45381 7.32822C7.10068 7.79335 6.89041 8.352 6.84883 8.93555C6.84883 9.03925 6.84883 9.14295 6.84883 9.24485C6.84883 10.2406 6.4552 11.1956 5.75454 11.8997C5.05389 12.6038 4.10359 12.9994 3.11271 12.9994C3.07357 12.9994 3.03443 12.9994 2.99351 12.9994C2.40469 12.9988 1.82881 13.1729 1.33806 13.4999C0.847309 13.8269 0.463524 14.2922 0.234818 14.8374C0.00611148 15.3827 -0.0573394 15.9836 0.0524195 16.565C0.162178 17.1463 0.440263 17.6822 0.851812 18.1054C1.26336 18.5286 1.79006 18.8202 2.36589 18.9439C2.94171 19.0675 3.54103 19.0175 4.08873 18.8003C4.63642 18.583 5.10811 18.2081 5.44467 17.7226C5.78122 17.2371 5.96766 16.6625 5.98063 16.0709Z" fill="#F28D2F"/>
<path d="M16.0557 19.2694H15.9845C15.9543 19.2694 15.924 19.2694 15.8938 19.2694C14.9029 19.2694 13.9526 18.8739 13.2519 18.1698C12.5513 17.4657 12.1577 16.5107 12.1577 15.5149C12.1577 15.4774 12.1577 15.4398 12.1577 15.4023C12.1594 14.802 11.9826 14.2149 11.6499 13.7164C11.3172 13.2178 10.8438 12.8306 10.2905 12.6045C9.73719 12.3783 9.12923 12.3235 8.54471 12.4471C7.96018 12.5707 7.42576 12.8671 7.01009 13.2982C6.59441 13.7293 6.31645 14.2754 6.2119 14.8664C6.10735 15.4574 6.18098 16.0663 6.42334 16.6149C6.66571 17.1636 7.06573 17.6269 7.57205 17.9454C8.07837 18.2639 8.66786 18.423 9.26484 18.4023C10.2557 18.4023 11.206 18.7979 11.9067 19.502C12.6073 20.2061 13.001 21.1611 13.001 22.1568C13.001 22.1962 13.001 22.2355 13.001 22.2748C13 22.8667 13.173 23.4457 13.4983 23.9391C13.8235 24.4326 14.2865 24.8185 14.8292 25.0486C15.3718 25.2786 15.97 25.3426 16.5486 25.2323C17.1273 25.1221 17.6607 24.8426 18.0819 24.4289C18.5031 24.0152 18.7934 23.4858 18.9164 22.907C19.0394 22.3281 18.9895 21.7257 18.7731 21.1752C18.5567 20.6248 18.1834 20.1508 17.6999 19.8127C17.2165 19.4746 16.6445 19.2875 16.0557 19.2748V19.2694Z" fill="#237BFF"/>
<path d="M18.4235 16.1713V16.098C18.4235 16.0676 18.4235 16.039 18.4235 16.0086C18.4235 15.0128 18.8171 14.0578 19.5178 13.3537C20.2184 12.6496 21.1687 12.2541 22.1596 12.2541C22.197 12.2541 22.2326 12.2541 22.2699 12.2541C22.8521 12.2546 23.4218 12.0844 23.909 11.7641C24.3962 11.4439 24.7798 10.9876 25.0125 10.4514C25.2453 9.91514 25.3172 9.32225 25.2193 8.74552C25.1215 8.1688 24.8581 7.63336 24.4616 7.20494C24.0652 6.77653 23.5528 6.4738 22.9875 6.33393C22.4222 6.19406 21.8286 6.22314 21.2795 6.4176C20.7304 6.61206 20.2498 6.96343 19.8967 7.42856C19.5436 7.8937 19.3333 8.45234 19.2917 9.03589C19.2917 9.14138 19.2917 9.24507 19.2917 9.34698C19.2917 10.3427 18.8981 11.2977 18.1974 12.0018C17.4968 12.7059 16.5465 13.1015 15.5556 13.1015C15.5164 13.1015 15.4773 13.1015 15.4364 13.1015C14.8476 13.1009 14.2717 13.2751 13.7809 13.602C13.2902 13.929 12.9064 14.3943 12.6777 14.9396C12.449 15.4848 12.3855 16.0858 12.4953 16.6671C12.605 17.2485 12.8831 17.7843 13.2947 18.2075C13.7062 18.6307 14.2329 18.9224 14.8088 19.046C15.3846 19.1696 15.9839 19.1197 16.5316 18.9024C17.0793 18.6851 17.551 18.3103 17.8875 17.8247C18.2241 17.3392 18.4105 16.7646 18.4235 16.1731V16.1713Z" fill="#0047B0"/>
</svg>
