<svg width="276" height="442" viewBox="0 0 276 442" fill="none" xmlns="http://www.w3.org/2000/svg">
<g filter="url(#filter0_d_1071_29362)">
<mask id="path-1-inside-1_1071_29362" fill="white">
<path fill-rule="evenodd" clip-rule="evenodd" d="M17 25C17 18.3726 22.3726 13 29 13H387C393.627 13 399 18.3726 399 25V209.473C392.659 212.237 388.223 218.596 388.223 226C388.223 233.404 392.659 239.763 399 242.527V474C399 480.627 393.627 486 387 486H29C22.3726 486 17 480.627 17 474V242.129C22.8829 239.184 26.9257 233.067 26.9257 226C26.9257 218.933 22.8829 212.816 17 209.871V25Z"/>
</mask>
<path fill-rule="evenodd" clip-rule="evenodd" d="M17 25C17 18.3726 22.3726 13 29 13H387C393.627 13 399 18.3726 399 25V209.473C392.659 212.237 388.223 218.596 388.223 226C388.223 233.404 392.659 239.763 399 242.527V474C399 480.627 393.627 486 387 486H29C22.3726 486 17 480.627 17 474V242.129C22.8829 239.184 26.9257 233.067 26.9257 226C26.9257 218.933 22.8829 212.816 17 209.871V25Z" fill="white"/>
<path d="M399 209.473L399.4 210.389L400 210.128V209.473H399ZM399 242.527H400V241.872L399.4 241.611L399 242.527ZM17 242.129L16.5523 241.235L16 241.511V242.129H17ZM17 209.871H16V210.489L16.5523 210.765L17 209.871ZM29 12C21.8203 12 16 17.8203 16 25H18C18 18.9249 22.9249 14 29 14V12ZM387 12H29V14H387V12ZM400 25C400 17.8203 394.18 12 387 12V14C393.075 14 398 18.9249 398 25H400ZM400 209.473V25H398V209.473H400ZM389.223 226C389.223 219.005 393.414 212.999 399.4 210.389L398.6 208.556C391.905 211.475 387.223 218.188 387.223 226H389.223ZM399.4 241.611C393.414 239.001 389.223 232.995 389.223 226H387.223C387.223 233.812 391.905 240.525 398.6 243.444L399.4 241.611ZM400 474V242.527H398V474H400ZM387 487C394.18 487 400 481.18 400 474H398C398 480.075 393.075 485 387 485V487ZM29 487H387V485H29V487ZM16 474C16 481.18 21.8203 487 29 487V485C22.9249 485 18 480.075 18 474H16ZM16 242.129V474H18V242.129H16ZM25.9257 226C25.9257 232.677 22.1071 238.454 16.5523 241.235L17.4477 243.023C23.6586 239.913 27.9257 233.458 27.9257 226H25.9257ZM16.5523 210.765C22.1071 213.546 25.9257 219.323 25.9257 226H27.9257C27.9257 218.542 23.6586 212.087 17.4477 208.977L16.5523 210.765ZM16 25V209.871H18V25H16Z" fill="#EFF2F5" mask="url(#path-1-inside-1_1071_29362)"/>
</g>
<defs>
<filter id="filter0_d_1071_29362" x="-2" y="0" width="418" height="507.25" filterUnits="userSpaceOnUse" color-interpolation-filters="sRGB">
<feFlood flood-opacity="0" result="BackgroundImageFix"/>
<feColorMatrix in="SourceAlpha" type="matrix" values="0 0 0 0 0 0 0 0 0 0 0 0 0 0 0 0 0 0 127 0" result="hardAlpha"/>
<feOffset dy="4"/>
<feGaussianBlur stdDeviation="8.5"/>
<feComposite in2="hardAlpha" operator="out"/>
<feColorMatrix type="matrix" values="0 0 0 0 0 0 0 0 0 0 0 0 0 0 0 0 0 0 0.05 0"/>
<feBlend mode="normal" in2="BackgroundImageFix" result="effect1_dropShadow_1071_29362"/>
<feBlend mode="normal" in="SourceGraphic" in2="effect1_dropShadow_1071_29362" result="shape"/>
</filter>
</defs>
</svg>
