<svg width="16" height="17" viewBox="0 0 16 17" fill="none" xmlns="http://www.w3.org/2000/svg">
<path d="M10.6666 9.10016V11.9002C10.6666 14.2335 9.73325 15.1668 7.39992 15.1668H4.59992C2.26659 15.1668 1.33325 14.2335 1.33325 11.9002V9.10016C1.33325 6.76683 2.26659 5.8335 4.59992 5.8335H7.39992C9.73325 5.8335 10.6666 6.76683 10.6666 9.10016Z" fill="#A6B0C3"/>
<path d="M11.4001 1.8335H8.60009C6.67939 1.8335 5.71176 2.47043 5.42932 3.99277C5.32773 4.54033 5.79508 5.00016 6.35199 5.00016H7.40009C10.2001 5.00016 11.5001 6.30016 11.5001 9.10016V10.1483C11.5001 10.7052 11.9599 11.1725 12.5075 11.0709C14.0298 10.7885 14.6668 9.82086 14.6668 7.90016V5.10016C14.6668 2.76683 13.7334 1.8335 11.4001 1.8335Z" fill="#A6B0C3"/>
</svg>
