<svg width="156" height="71" viewBox="0 0 156 71" fill="none" xmlns="http://www.w3.org/2000/svg">
<path d="M4.10152 68.9148H1.39362V61.707H4.10152C6.4068 61.707 7.50417 63.0835 7.50417 65.3129C7.50417 67.5422 6.41469 68.9148 4.10152 68.9148ZM4.1331 62.4052H2.25809V68.2166H4.1331C5.80285 68.2166 6.6397 67.2249 6.6397 65.3129C6.6397 63.4009 5.80285 62.4052 4.1331 62.4052Z" fill="white"/>
<path d="M8.48378 62.1814C8.48274 62.1156 8.49572 62.0504 8.52186 61.9902C8.548 61.9299 8.58668 61.876 8.6353 61.832C8.68393 61.788 8.74136 61.755 8.80374 61.7352C8.86613 61.7154 8.932 61.7093 8.99694 61.7172C9.06145 61.7113 9.12649 61.7189 9.1879 61.7396C9.24932 61.7603 9.30576 61.7936 9.35363 61.8375C9.4015 61.8813 9.43973 61.9347 9.46589 61.9943C9.49205 62.0539 9.50557 62.1182 9.50557 62.1833C9.50557 62.2484 9.49205 62.3128 9.46589 62.3724C9.43973 62.4319 9.4015 62.4853 9.35363 62.5292C9.30576 62.5731 9.24932 62.6064 9.1879 62.6271C9.12649 62.6478 9.06145 62.6554 8.99694 62.6494C8.93167 62.6574 8.86544 62.6512 8.80278 62.6312C8.74011 62.6112 8.68247 62.5778 8.63378 62.5334C8.58509 62.489 8.54649 62.4345 8.52061 62.3738C8.49473 62.3131 8.48216 62.2474 8.48378 62.1814ZM8.58641 68.925V63.6887H9.41931V68.9131L8.58641 68.925Z" fill="white"/>
<path d="M10.4957 66.1523C10.4957 64.6331 11.3523 63.5898 12.7536 63.5898C13.1409 63.5547 13.5291 63.6472 13.8595 63.8533C14.1899 64.0594 14.4446 64.3679 14.5852 64.7322V63.689H15.3747V68.5681C15.3747 70.1787 14.5181 70.9998 12.9786 70.9998C11.5181 70.9998 10.772 70.262 10.772 69.187H11.5457C11.6168 69.9803 12.1497 70.4206 13.026 70.4206C13.9813 70.4206 14.5457 69.905 14.5457 68.7506V67.6201C14.2536 68.346 13.6418 68.7109 12.7536 68.7109C11.3523 68.7109 10.4957 67.6677 10.4957 66.1523ZM14.5457 66.1523C14.5457 64.875 13.8905 64.1967 12.9352 64.1967C11.9799 64.1967 11.3326 64.875 11.3326 66.1523C11.3326 67.4297 11.9878 68.104 12.9352 68.104C13.8826 68.104 14.5457 67.4257 14.5457 66.1523Z" fill="white"/>
<path d="M16.5634 62.1814C16.5624 62.1156 16.5754 62.0504 16.6015 61.9902C16.6276 61.9299 16.6663 61.876 16.715 61.832C16.7636 61.788 16.821 61.755 16.8834 61.7352C16.9458 61.7154 17.0117 61.7093 17.0766 61.7172C17.1411 61.7113 17.2061 61.7189 17.2676 61.7396C17.329 61.7603 17.3854 61.7936 17.4333 61.8375C17.4811 61.8813 17.5194 61.9347 17.5455 61.9943C17.5717 62.0539 17.5852 62.1182 17.5852 62.1833C17.5852 62.2484 17.5717 62.3128 17.5455 62.3724C17.5194 62.4319 17.4811 62.4853 17.4333 62.5292C17.3854 62.5731 17.329 62.6064 17.2676 62.6271C17.2061 62.6478 17.1411 62.6554 17.0766 62.6494C17.0113 62.6574 16.9451 62.6512 16.8824 62.6312C16.8198 62.6112 16.7621 62.5778 16.7134 62.5334C16.6647 62.489 16.6261 62.4345 16.6003 62.3738C16.5744 62.3131 16.5618 62.2474 16.5634 62.1814ZM16.6621 68.925V63.6887H17.499V68.9131L16.6621 68.925Z" fill="white"/>
<path d="M19.2309 67.6999V64.2923H18.3428V63.6815H19.2309V62.0947H20.0678V63.6815H21.3152V64.2923H20.0678V67.7118C20.0678 68.2195 20.2375 68.3385 20.7704 68.3385L21.3152 68.3187V68.9058C21.1138 68.9058 20.7823 68.9573 20.6007 68.9573C19.602 68.9653 19.2309 68.6559 19.2309 67.6999Z" fill="white"/>
<path d="M22.1214 67.4377C22.1214 66.6681 22.6069 66.0691 23.874 65.958L24.8333 65.8787C25.5359 65.8152 25.7372 65.6645 25.7372 65.2797C25.7372 64.6133 25.3662 64.1968 24.4977 64.1968C23.7083 64.1968 23.2701 64.5419 23.2109 65.2797H22.4214C22.4214 64.2483 23.053 63.5898 24.5056 63.5898C25.9583 63.5898 26.5898 64.2483 26.5898 65.2797V67.5765C26.5529 68.0285 26.608 68.4834 26.7517 68.9133H26.0017C25.8111 68.6204 25.7313 68.2686 25.7767 67.9216C25.4964 68.6515 24.8806 69.0165 23.9648 69.0165C22.7885 69.0165 22.1214 68.4095 22.1214 67.4377ZM25.7372 66.6443V66.1286C25.4834 66.3381 25.1613 66.4455 24.8333 66.4301L24.1148 66.4936C23.2898 66.5531 22.9582 66.8902 22.9582 67.394C22.9582 67.9891 23.3214 68.4373 24.1859 68.4373C25.2162 68.4294 25.7569 67.6082 25.7569 66.6364L25.7372 66.6443Z" fill="white"/>
<path d="M27.8534 68.9138V61.7061H28.6921V68.9138H27.8534Z" fill="white"/>
<path d="M38.0692 68.9138L37.3547 67.093H33.9086L33.1942 68.9138H32.2981L35.1086 61.7061H36.1547L38.9652 68.9138H38.0692ZM35.6257 62.5351L34.1257 66.4147H37.1179L35.6257 62.5351Z" fill="white"/>
<path d="M39.6401 67.3266H40.4296C40.4809 67.9732 40.7415 68.4373 41.7915 68.4373C42.8415 68.4373 43.1257 67.9732 43.1257 67.4654C43.1257 66.9577 42.802 66.7593 42.2691 66.6721L41.2507 66.5213C40.2717 66.3785 39.798 66.0136 39.798 65.1766C39.798 64.3396 40.2954 63.5898 41.8033 63.5898C43.3112 63.5898 43.8204 64.3078 43.8204 65.2004H43.0309C42.9796 64.6609 42.8217 64.165 41.8112 64.165C40.9546 64.165 40.627 64.5221 40.627 65.1171C40.627 65.6248 40.9112 65.7875 41.3533 65.847L42.3796 65.9977C43.3467 66.1405 43.9586 66.5134 43.9586 67.4258C43.9586 68.3381 43.3941 69.0125 41.8033 69.0125C40.2125 69.0125 39.6401 68.2985 39.6401 67.3266Z" fill="white"/>
<path d="M44.8157 67.3266H45.6052C45.6565 67.9732 45.917 68.4373 46.967 68.4373C48.017 68.4373 48.2736 67.9732 48.2736 67.4654C48.2736 66.9577 47.9538 66.7593 47.417 66.6721L46.4025 66.5213C45.4236 66.3785 44.9499 66.0136 44.9499 65.1766C44.9499 64.3396 45.4433 63.5898 46.9552 63.5898C48.467 63.5898 48.9683 64.3078 48.9683 65.2004H48.1788C48.1275 64.6609 47.9657 64.165 46.9591 64.165C46.1025 64.165 45.7749 64.5221 45.7749 65.1171C45.7749 65.6248 46.0552 65.7875 46.5012 65.847L47.5275 65.9977C48.4946 66.1405 49.1065 66.5134 49.1065 67.4258C49.1065 68.3381 48.542 69.0125 46.9512 69.0125C45.3604 69.0125 44.8157 68.2985 44.8157 67.3266Z" fill="white"/>
<path d="M49.9943 66.3032C49.9943 64.6926 50.8193 63.5898 52.422 63.5898C54.0246 63.5898 54.8615 64.7244 54.8615 66.1802C54.8714 66.2645 54.8714 66.3497 54.8615 66.4341H50.8312C50.8312 67.8502 51.5141 68.4175 52.4812 68.4175C52.8238 68.4438 53.1646 68.3475 53.4434 68.1457C53.7223 67.9439 53.9211 67.6496 54.0049 67.3147H54.7509C54.5062 68.354 53.7917 69.0046 52.4812 69.0046C50.8825 69.0165 49.9943 67.9811 49.9943 66.3032ZM50.8312 65.8668H54.0246C53.9141 64.7323 53.318 64.1769 52.422 64.1769C51.5259 64.1769 50.9417 64.7323 50.8312 65.8787V65.8668Z" fill="white"/>
<path d="M56.289 67.6999V64.2923H55.4009V63.6815H56.289V62.0947H57.1259V63.6815H58.3733V64.2923H57.1259V67.7118C57.1259 68.2195 57.2956 68.3385 57.8285 68.3385L58.3733 68.3187V68.9058C58.1719 68.9058 57.8404 68.9573 57.6588 68.9573C56.664 68.9653 56.289 68.6559 56.289 67.6999Z" fill="white"/>
<path d="M68.9595 68.9138V62.5272L66.3621 68.9138H65.6239L63.0265 62.5272V68.9138H62.1897V61.7061H63.5397L66.0108 67.6563L68.466 61.7061H69.816V68.9138H68.9595Z" fill="white"/>
<path d="M70.9353 67.4377C70.9353 66.6681 71.4208 66.0691 72.6879 65.958L73.6472 65.8787C74.3537 65.8152 74.5551 65.6645 74.5551 65.2797C74.5551 64.6133 74.1603 64.1968 73.3156 64.1968C72.5261 64.1968 72.084 64.5419 72.0248 65.2797H71.2353C71.2353 64.2483 71.8708 63.5898 73.3195 63.5898C74.7682 63.5898 75.4037 64.2483 75.4037 65.2797V67.5765C75.3689 68.0285 75.4239 68.4829 75.5656 68.9133H74.8314C74.6425 68.6198 74.5641 68.2681 74.6103 67.9216C74.3261 68.6515 73.7143 69.0165 72.7945 69.0165C71.6024 69.0165 70.9353 68.4095 70.9353 67.4377ZM74.5551 66.6443V66.1286C74.2993 66.3374 73.9763 66.4446 73.6472 66.4301L72.9327 66.4936C72.1077 66.5531 71.7722 66.8902 71.7722 67.394C71.7722 67.9891 72.1353 68.4373 73.0037 68.4373C74.0301 68.4294 74.5551 67.6082 74.5551 66.6364V66.6443Z" fill="white"/>
<path d="M80.084 68.914V65.5938C80.084 64.7251 79.7722 64.2689 78.9353 64.2689C78.0985 64.2689 77.5024 64.9472 77.5024 65.9984V68.914H76.6774V63.6897H77.4669V64.6537C77.6046 64.3202 77.8427 64.0384 78.1478 63.8477C78.4529 63.6571 78.8097 63.5671 79.1682 63.5906C80.3524 63.5906 80.9209 64.1975 80.9209 65.4629V68.914H80.084Z" fill="white"/>
<path d="M81.9958 67.4377C81.9958 66.6681 82.4814 66.0691 83.7485 65.958L84.7077 65.8787C85.4143 65.8152 85.6156 65.6645 85.6156 65.2797C85.6156 64.6133 85.2406 64.1968 84.3761 64.1968C83.5867 64.1968 83.1445 64.5419 83.0853 65.2797H82.2959C82.2959 64.2483 82.9314 63.5898 84.3801 63.5898C85.8288 63.5898 86.4643 64.2483 86.4643 65.2797V67.5765C86.4294 68.0285 86.4845 68.4829 86.6262 68.9133H85.8761C85.6873 68.6198 85.6089 68.2681 85.6551 67.9216C85.3709 68.6515 84.759 69.0165 83.8393 69.0165C82.663 69.0165 81.9958 68.4095 81.9958 67.4377ZM85.6156 66.6443V66.1286C85.3599 66.3374 85.0369 66.4446 84.7077 66.4301L83.9932 66.4936C83.1682 66.5531 82.8327 66.8902 82.8327 67.394C82.8327 67.9891 83.1959 68.4373 84.0643 68.4373C85.0906 68.4294 85.6156 67.6082 85.6156 66.6364V66.6443Z" fill="white"/>
<path d="M87.5294 66.1524C87.5294 64.6332 88.3821 63.5899 89.7834 63.5899C90.1712 63.5546 90.56 63.6469 90.8911 63.853C91.2221 64.0591 91.4776 64.3677 91.6189 64.7323V63.689H92.4084V68.5682C92.4084 70.1788 91.5518 70.9999 90.0123 70.9999C88.5518 70.9999 87.8057 70.2621 87.8057 69.1871H88.5715C88.6426 69.9804 89.1755 70.4208 90.0518 70.4208C91.011 70.4208 91.5716 69.9051 91.5716 68.7507V67.6202C91.2795 68.3461 90.6676 68.7111 89.7794 68.7111C88.3821 68.7111 87.5294 67.6678 87.5294 66.1524ZM91.5755 66.1524C91.5755 64.8751 90.9242 64.1968 89.965 64.1968C89.0057 64.1968 88.3623 64.8751 88.3623 66.1524C88.3623 67.4298 89.0176 68.1041 89.965 68.1041C90.9123 68.1041 91.5755 67.4258 91.5755 66.1524Z" fill="white"/>
<path d="M93.4896 66.3032C93.4896 64.6926 94.3146 63.5898 95.9173 63.5898C97.5199 63.5898 98.3567 64.7244 98.3567 66.1802C98.3667 66.2645 98.3667 66.3497 98.3567 66.4341H94.3265C94.3265 67.8502 95.0133 68.4175 95.9804 68.4175C96.3224 68.4428 96.6623 68.3461 96.9403 68.1444C97.2182 67.9427 97.4165 67.6489 97.5001 67.3147H98.2462C98.0015 68.354 97.287 69.0046 95.9804 69.0046C94.3778 69.0165 93.4896 67.9811 93.4896 66.3032ZM94.3265 65.8668H97.5199C97.4094 64.7323 96.8133 64.1769 95.9173 64.1769C95.0212 64.1769 94.4409 64.7323 94.3265 65.8787V65.8668Z" fill="white"/>
<path d="M105.4 68.9135V65.5735C105.4 64.7047 105.135 64.2684 104.44 64.2684C103.746 64.2684 103.201 64.9269 103.201 65.9781V68.9135H102.411V65.5735C102.411 64.7047 102.139 64.2684 101.464 64.2684C100.789 64.2684 100.244 64.9269 100.244 65.9781V68.9135H99.4547V63.6892H100.244V64.6532C100.344 64.3409 100.541 64.069 100.806 63.8776C101.071 63.6862 101.39 63.5854 101.717 63.5901C102.053 63.5549 102.39 63.6522 102.656 63.8616C102.923 64.071 103.098 64.3761 103.146 64.7127C103.246 64.3822 103.451 64.0937 103.73 63.8911C104.008 63.6884 104.345 63.5827 104.689 63.5901C105.727 63.5901 106.221 64.197 106.221 65.4624V68.9135H105.4Z" fill="white"/>
<path d="M107.282 66.3032C107.282 64.6926 108.107 63.5898 109.71 63.5898C111.312 63.5898 112.145 64.7244 112.145 66.1802C112.149 66.2653 112.142 66.3505 112.125 66.4341H108.115C108.139 67.8502 108.802 68.4175 109.769 68.4175C110.111 68.4436 110.451 68.3472 110.729 68.1454C111.008 67.9435 111.206 67.6493 111.289 67.3147H112.035C111.794 68.354 111.079 69.0046 109.769 69.0046C108.166 69.0165 107.282 67.9811 107.282 66.3032ZM108.115 65.8668H111.308C111.198 64.7323 110.606 64.1769 109.71 64.1769C108.814 64.1769 108.229 64.7323 108.115 65.8787V65.8668Z" fill="white"/>
<path d="M116.637 68.914V65.5938C116.637 64.7251 116.325 64.2689 115.493 64.2689C114.66 64.2689 114.06 64.9472 114.06 65.9984V68.914H113.223V63.6897H114.012V64.6537C114.15 64.3202 114.388 64.0384 114.693 63.8477C114.998 63.6571 115.355 63.5671 115.714 63.5906C116.898 63.5906 117.466 64.1975 117.466 65.4629V68.914H116.637Z" fill="white"/>
<path d="M119.109 67.6999V64.2923H118.221V63.6815H119.109V62.0947H119.946V63.6815H121.193V64.2923H119.946V67.7118C119.946 68.2195 120.115 68.3385 120.648 68.3385L121.193 68.3187V68.9058C120.992 68.9058 120.66 68.9573 120.479 68.9573C119.48 68.9653 119.109 68.6559 119.109 67.6999Z" fill="white"/>
<path d="M124.729 65.3115C124.729 63.1138 125.886 61.6064 128.132 61.6064C130.078 61.6064 131.29 62.7965 131.29 64.2166H130.5C130.37 63.1337 129.593 62.3244 128.152 62.3244C126.482 62.3244 125.614 63.4074 125.614 65.3115C125.614 67.2155 126.482 68.2985 128.152 68.2985C129.573 68.2985 130.37 67.5289 130.5 66.3428H131.29C131.29 67.8106 130.133 69.0165 128.132 69.0165C125.886 69.0165 124.729 67.5051 124.729 65.3115Z" fill="white"/>
<path d="M132.15 66.3032C132.15 64.6926 132.979 63.5898 134.577 63.5898C136.176 63.5898 137.017 64.7244 137.017 66.1802C137.02 66.2653 137.014 66.3505 136.997 66.4341H132.987C133.006 67.8502 133.674 68.4175 134.641 68.4175C134.983 68.4428 135.323 68.3461 135.601 68.1444C135.878 67.9427 136.077 67.6489 136.16 67.3147H136.906C136.666 68.354 135.947 69.0046 134.641 69.0046C133.038 69.0165 132.15 67.9811 132.15 66.3032ZM132.987 65.8668H136.18C136.07 64.7323 135.474 64.1769 134.577 64.1769C133.681 64.1769 133.097 64.7323 132.987 65.8787V65.8668Z" fill="white"/>
<path d="M141.51 68.914V65.5938C141.51 64.7251 141.198 64.2689 140.361 64.2689C139.524 64.2689 138.932 64.9472 138.932 65.9984V68.914H138.095V63.6897H138.885V64.6537C139.022 64.3202 139.261 64.0384 139.566 63.8477C139.871 63.6571 140.228 63.5671 140.586 63.5906C141.77 63.5906 142.339 64.1975 142.339 65.4629V68.914H141.51Z" fill="white"/>
<path d="M143.977 67.6999V64.2923H143.093V63.6815H143.977V62.0947H144.814V63.6815H146.066V64.2923H144.814V67.7118C144.814 68.2195 144.984 68.3385 145.521 68.3385L146.066 68.3187V68.9058C145.864 68.9058 145.529 68.9573 145.347 68.9573C144.352 68.9653 143.977 68.6559 143.977 67.6999Z" fill="white"/>
<path d="M146.579 66.3032C146.579 64.6926 147.404 63.5898 149.007 63.5898C150.609 63.5898 151.442 64.7244 151.442 66.1802C151.452 66.2645 151.452 66.3497 151.442 66.4341H147.412C147.436 67.8502 148.099 68.4175 149.066 68.4175C149.408 68.4436 149.748 68.3472 150.026 68.1454C150.305 67.9435 150.503 67.6493 150.586 67.3147H151.332C151.091 68.354 150.376 69.0046 149.066 69.0046C147.463 69.0165 146.579 67.9811 146.579 66.3032ZM147.412 65.8668H150.605C150.495 64.7323 149.903 64.1769 149.026 64.1769C148.15 64.1769 147.526 64.7323 147.412 65.8787V65.8668Z" fill="white"/>
<path d="M152.518 68.9135V63.6892H153.307V64.9269C153.588 64.0145 154.061 63.6416 154.839 63.6416C154.998 63.6445 155.156 63.6604 155.313 63.6892V64.4191H154.807C153.923 64.4191 153.347 65.1292 153.347 66.4025V68.9214L152.518 68.9135Z" fill="white"/>
<path d="M76.9491 48.8984V25.9899C76.9491 25.4639 76.7411 24.9594 76.371 24.5875C76.0009 24.2155 75.4989 24.0065 74.9754 24.0065H70.0096C69.4861 24.0065 68.9841 23.7976 68.614 23.4256C68.2438 23.0536 68.0359 22.5492 68.0359 22.0231V17.0249C68.0359 16.4989 68.2438 15.9944 68.614 15.6224C68.9841 15.2505 69.4861 15.0415 70.0096 15.0415H92.8097C93.3331 15.0415 93.8352 15.2505 94.2053 15.6224C94.5754 15.9944 94.7834 16.4989 94.7834 17.0249V22.0112C94.7834 22.5373 94.5754 23.0417 94.2053 23.4137C93.8352 23.7857 93.3331 23.9946 92.8097 23.9946H87.8478C87.3244 23.9946 86.8223 24.2036 86.4522 24.5756C86.0821 24.9475 85.8741 25.452 85.8741 25.978V48.8865C85.8741 49.4125 85.6662 49.917 85.2961 50.289C84.9259 50.6609 84.4239 50.8699 83.9004 50.8699H78.9307C78.4079 50.872 77.9056 50.6656 77.5341 50.296C77.1626 49.9263 76.9522 49.4237 76.9491 48.8984Z" fill="white"/>
<path d="M97.6818 48.8971V43.9148C97.6818 43.3888 97.8897 42.8843 98.2598 42.5123C98.63 42.1404 99.132 41.9314 99.6555 41.9314H113.534C114.058 41.9314 114.56 41.7224 114.93 41.3505C115.3 40.9785 115.508 40.474 115.508 39.948V39.4442C115.508 38.9182 115.3 38.4137 114.93 38.0417C114.56 37.6697 114.058 37.4608 113.534 37.4608H102.142C101.556 37.4724 100.974 37.3637 100.431 37.1413C99.8877 36.919 99.3956 36.5876 98.9844 36.1676C98.5706 35.7512 98.2437 35.2561 98.0227 34.7112C97.8017 34.1663 97.6912 33.5825 97.6975 32.9941V19.5148C97.6876 18.9295 97.7966 18.3483 98.0179 17.8067C98.2391 17.2651 98.568 16.7746 98.9844 16.3652C99.3937 15.9402 99.8847 15.6032 100.428 15.3748C100.97 15.1463 101.554 15.0312 102.142 15.0363H122.467C122.991 15.0363 123.493 15.2453 123.863 15.6172C124.233 15.9892 124.441 16.4937 124.441 17.0197V22.01C124.441 22.536 124.233 23.0405 123.863 23.4125C123.493 23.7844 122.991 23.9934 122.467 23.9934H108.58C108.057 23.9934 107.555 24.2024 107.185 24.5743C106.815 24.9463 106.607 25.4508 106.607 25.9768V26.4885C106.607 27.0146 106.815 27.5191 107.185 27.891C107.555 28.263 108.057 28.4719 108.58 28.4719H119.981C120.566 28.463 121.147 28.5765 121.687 28.8053C122.226 29.034 122.713 29.3731 123.115 29.8008C123.538 30.2081 123.874 30.6978 124.102 31.2401C124.33 31.7824 124.445 32.3657 124.441 32.9545V46.398C124.451 46.9902 124.339 47.5779 124.111 48.1242C123.884 48.6704 123.546 49.1632 123.119 49.5715C122.71 49.9879 122.221 50.3173 121.683 50.5401C121.144 50.763 120.567 50.8747 119.984 50.8687H99.6594C99.1373 50.8697 98.6361 50.6628 98.2654 50.2933C97.8948 49.9238 97.6849 49.4218 97.6818 48.8971Z" fill="white"/>
<path d="M127.331 48.8971V43.9148C127.331 43.3887 127.539 42.8843 127.909 42.5123C128.279 42.1403 128.781 41.9314 129.305 41.9314H143.184C143.707 41.9314 144.209 41.7224 144.579 41.3504C144.949 40.9785 145.157 40.474 145.157 39.948V39.4442C145.157 38.9181 144.949 38.4136 144.579 38.0417C144.209 37.6697 143.707 37.4608 143.184 37.4608H131.791C131.205 37.4724 130.623 37.3637 130.08 37.1413C129.537 36.919 129.045 36.5876 128.634 36.1676C128.22 35.7512 127.893 35.2561 127.672 34.7112C127.451 34.1663 127.34 33.5825 127.347 32.9941V19.5148C127.337 18.9295 127.446 18.3483 127.667 17.8067C127.888 17.2651 128.217 16.7746 128.634 16.3652C129.043 15.9402 129.534 15.6032 130.077 15.3748C130.62 15.1463 131.203 15.0312 131.791 15.0363H152.109C152.632 15.0363 153.134 15.2453 153.504 15.6172C153.874 15.9892 154.082 16.4937 154.082 17.0197V22.01C154.082 22.536 153.874 23.0405 153.504 23.4125C153.134 23.7844 152.632 23.9934 152.109 23.9934H138.23C137.706 23.9934 137.204 24.2024 136.834 24.5743C136.464 24.9463 136.256 25.4508 136.256 25.9768V26.4885C136.256 27.0146 136.464 27.519 136.834 27.891C137.204 28.263 137.706 28.4719 138.23 28.4719H149.626C150.212 28.4627 150.794 28.576 151.334 28.8048C151.874 29.0336 152.361 29.3728 152.764 29.8008C153.189 30.2107 153.525 30.7038 153.753 31.2497C153.98 31.7956 154.094 32.3825 154.086 32.9743V46.4179C154.096 47.01 153.984 47.5977 153.756 48.144C153.529 48.6902 153.191 49.1831 152.764 49.5913C152.354 50.0082 151.865 50.3378 151.326 50.5607C150.787 50.7836 150.209 50.895 149.626 50.8885H129.309C129.048 50.889 128.791 50.8378 128.55 50.7379C128.31 50.6379 128.091 50.4912 127.908 50.3061C127.724 50.1211 127.578 49.9013 127.479 49.6595C127.38 49.4177 127.33 49.1586 127.331 48.8971Z" fill="white"/>
<path d="M35.8802 15.2799H35.7223C35.6552 15.2799 35.592 15.2799 35.5249 15.2799C33.3264 15.2799 31.2179 14.4023 29.6633 12.84C28.1087 11.2778 27.2354 9.15895 27.2354 6.94961C27.2354 6.86631 27.2354 6.783 27.2354 6.6997C27.2393 5.36753 26.8467 4.06462 26.1081 2.95835C25.3696 1.85209 24.3187 0.993008 23.0906 0.491478C21.8625 -0.0100514 20.5132 -0.131121 19.2161 0.143824C17.919 0.418769 16.7333 1.07717 15.8114 2.03444C14.8894 2.99171 14.2734 4.20412 14.0424 5.51591C13.8113 6.8277 13.9758 8.17895 14.5148 9.39605C15.0538 10.6132 15.9425 11.6405 17.067 12.3462C18.1914 13.0518 19.5 13.4035 20.8248 13.356C23.0233 13.356 25.1318 14.2337 26.6864 15.7959C28.241 17.3582 29.1143 19.477 29.1143 21.6864C29.1143 21.7736 29.1143 21.8609 29.1143 21.9482C29.1146 23.2614 29.5007 24.5453 30.2242 25.6389C30.9478 26.7325 31.9765 27.587 33.1814 28.0953C34.3863 28.6036 35.7138 28.7431 36.9973 28.4963C38.2808 28.2494 39.4632 27.6272 40.3961 26.7077C41.3291 25.7881 41.9711 24.6123 42.2417 23.3275C42.5122 22.0427 42.3993 20.7063 41.917 19.4858C41.4347 18.2653 40.6045 17.215 39.5305 16.4668C38.4566 15.7186 37.1867 15.3057 35.8802 15.2799Z" fill="#81d401"/>
<path d="M13.2695 35.6571V35.4944C13.2695 35.427 13.2695 35.3635 13.2695 35.2961C13.2695 33.0867 14.1429 30.9679 15.6975 29.4056C17.252 27.8434 19.3605 26.9657 21.559 26.9657C21.6419 26.9657 21.7209 26.9657 21.8038 26.9657C23.0955 26.9671 24.3595 26.5893 25.4405 25.8787C26.5215 25.1682 27.3725 24.1559 27.889 22.9661C28.4054 21.7763 28.5649 20.4608 28.3478 19.1812C28.1306 17.9016 27.5463 16.7136 26.6667 15.763C25.787 14.8125 24.6502 14.1408 23.396 13.8305C22.1417 13.5201 20.8246 13.5846 19.6063 14.0161C18.388 14.4476 17.3216 15.2272 16.5381 16.2592C15.7546 17.2912 15.2881 18.5307 15.1958 19.8255C15.1958 20.0555 15.1958 20.2856 15.1958 20.5117C15.1958 22.7211 14.3225 24.8399 12.7679 26.4022C11.2133 27.9644 9.10484 28.8421 6.90632 28.8421C6.81948 28.8421 6.73264 28.8421 6.64185 28.8421C5.33541 28.8408 4.05768 29.2271 2.96882 29.9526C1.87997 30.6781 1.02844 31.7104 0.521002 32.9202C0.0135599 34.13 -0.127222 35.4634 0.116306 36.7533C0.359833 38.0431 0.976833 39.2321 1.88996 40.171C2.80308 41.1099 3.9717 41.7571 5.24931 42.0314C6.52692 42.3057 7.85667 42.1948 9.07187 41.7128C10.2871 41.2308 11.3336 40.399 12.0804 39.3217C12.8271 38.2444 13.2408 36.9696 13.2695 35.6571Z" fill="#58c402"/>
<path d="M35.6236 42.7539H35.4657C35.3986 42.7539 35.3315 42.7539 35.2644 42.7539C33.0659 42.7539 30.9574 41.8762 29.4028 40.314C27.8482 38.7517 26.9749 36.6329 26.9749 34.4235C26.9749 34.3402 26.9749 34.2569 26.9749 34.1736C26.9788 32.8418 26.5865 31.5391 25.8483 30.433C25.1101 29.3269 24.0598 28.4678 22.8321 27.9659C21.6045 27.4641 20.2556 27.3425 18.9586 27.6168C17.6617 27.8911 16.476 28.5487 15.5537 29.5051C14.6314 30.4616 14.0147 31.6733 13.7827 32.9846C13.5508 34.2958 13.7141 35.6469 14.2519 36.8642C14.7896 38.0815 15.6772 39.1095 16.8006 39.8161C17.924 40.5228 19.2319 40.8758 20.5564 40.83C22.755 40.83 24.8634 41.7076 26.418 43.2699C27.9726 44.8321 28.846 46.951 28.846 49.1603C28.846 49.2476 28.846 49.3348 28.846 49.4221C28.8439 50.7353 29.2278 52.0199 29.9494 53.1147C30.671 54.2096 31.6982 55.0659 32.9023 55.5764C34.1063 56.0868 35.4335 56.2286 36.7174 55.984C38.0013 55.7395 39.1848 55.1193 40.1193 54.2015C41.0539 53.2836 41.698 52.1089 41.9708 50.8246C42.2437 49.5403 42.1331 48.2037 41.6529 46.9824C41.1728 45.761 40.3444 44.7093 39.2718 43.9592C38.1992 43.2091 36.9301 42.7939 35.6236 42.7658V42.7539Z" fill="#f9a138"/>
<path d="M40.8772 35.8797V35.7171C40.8772 35.6496 40.8772 35.5862 40.8772 35.5187C40.8772 33.3094 41.7505 31.1905 43.3051 29.6283C44.8597 28.0661 46.9682 27.1884 49.1667 27.1884C49.2496 27.1884 49.3285 27.1884 49.4114 27.1884C50.7031 27.1897 51.9671 26.8119 53.0481 26.1014C54.1292 25.3908 54.9802 24.3785 55.4966 23.1887C56.0131 21.9989 56.1725 20.6834 55.9554 19.4038C55.7383 18.1242 55.154 16.9362 54.2743 15.9857C53.3946 15.0351 52.2579 14.3635 51.0036 14.0531C49.7494 13.7428 48.4322 13.8073 47.2139 14.2388C45.9957 14.6702 44.9293 15.4498 44.1458 16.4818C43.3623 17.5139 42.8958 18.7534 42.8035 20.0481C42.8035 20.2822 42.8035 20.5122 42.8035 20.7383C42.8035 22.9477 41.9301 25.0665 40.3756 26.6288C38.821 28.191 36.7125 29.0687 34.514 29.0687C34.4271 29.0687 34.3403 29.0687 34.2495 29.0687C32.9431 29.0674 31.6653 29.4538 30.5765 30.1792C29.4876 30.9047 28.6361 31.9371 28.1287 33.1468C27.6212 34.3566 27.4804 35.69 27.724 36.9799C27.9675 38.2698 28.5845 39.4587 29.4976 40.3976C30.4107 41.3366 31.5794 41.9837 32.857 42.258C34.1346 42.5323 35.4643 42.4214 36.6795 41.9394C37.8947 41.4574 38.9413 40.6256 39.688 39.5483C40.4347 38.4711 40.8484 37.1962 40.8772 35.8837V35.8797Z" fill="#f2822f"/>
</svg>
