<svg width="16" height="15" viewBox="0 0 16 15" fill="none" xmlns="http://www.w3.org/2000/svg">
<path d="M3.91284 9.18045L3.91284 3.58135M7.40934 10.657L10.6578 2.99072" stroke="#A6B0C3" stroke-width="0.759375" stroke-linecap="round" stroke-linejoin="round"/>
<path fill-rule="evenodd" clip-rule="evenodd" d="M10.0448 3.46028V9.72622L9.3632 11.0894V11.2595H13.4521V11.0888L12.4297 9.72622V4.00011L13.445 3.0622H13.4486V2.38062H13.4521H10.3684L7.70472 11.2595H7.14835L4.32339 4.98232C4.25547 4.83171 4.16097 4.69468 4.04403 4.57774L2.54797 3.08169V2.40011H5.94938L8.58652 8.31994" fill="#A6B0C3"/>
<path d="M3.77101 8.89971L2.40114 10.8567C2.30719 10.9909 2.40321 11.1753 2.56703 11.1753H5.11107C5.26847 11.1753 5.3657 11.0036 5.28471 10.8686L4.11054 8.91165C4.03508 8.78589 3.85511 8.77956 3.77101 8.89971Z" fill="#A6B0C3"/>
</svg>
