<svg width="25" height="25" viewBox="0 0 25 25" fill="none" xmlns="http://www.w3.org/2000/svg">
<path d="M24.8511 12.9987C24.8511 18.9827 20.4838 23.9535 14.7796 24.8646V16.4695H17.5687L18.0899 12.9974H14.7929V10.7428C14.7929 9.7932 15.2517 8.8582 16.7292 8.8582H18.2437V5.91262C18.2437 5.91262 16.8684 5.68186 15.57 5.68186C12.8446 5.68186 11.0502 7.34761 11.0502 10.3462V12.9987H8.01974V16.4708H11.0502V24.8646C8.23693 24.4025 5.67951 22.9555 3.83462 20.7819C1.98974 18.6083 0.977521 15.8497 0.97873 12.9987C0.97873 6.36089 6.32613 0.979004 12.9215 0.979004C19.5169 0.979004 24.8511 6.36089 24.8511 12.9987Z" fill="white"/>
</svg>
