<svg width="24" height="21" viewBox="0 0 24 21" fill="none" xmlns="http://www.w3.org/2000/svg">
<path d="M7.56906 20.1988C16.5742 20.1988 21.5039 12.5517 21.5039 5.92446C21.5039 5.71226 21.5039 5.50006 21.4906 5.2746C22.454 4.56215 23.2822 3.68317 23.9362 2.67915C23.0569 3.07702 22.1113 3.34227 21.1153 3.47489C22.1458 2.83493 22.9127 1.84681 23.2771 0.689786C22.3314 1.27333 21.2837 1.68447 20.1577 1.90993C19.71 1.40553 19.1604 1.00173 18.5452 0.725129C17.9301 0.448527 17.2633 0.305399 16.5888 0.305176C13.8833 0.305176 11.6844 2.55846 11.6844 5.32765C11.6844 5.72552 11.7361 6.09687 11.8144 6.46822C7.75075 6.26928 4.14072 4.25472 1.72166 1.22028C1.28602 1.99232 1.05843 2.86429 1.06119 3.75075C1.06119 5.48813 1.92855 7.02524 3.23623 7.92576C2.45894 7.89942 1.69954 7.68556 1.02273 7.30242V7.36874C1.02273 9.79576 2.71767 11.8355 4.9431 12.2864C4.52195 12.4048 4.08614 12.4628 3.64869 12.4588C3.33835 12.4588 3.02801 12.4323 2.73093 12.366C3.35161 14.3673 5.16326 15.8116 7.31044 15.8514C5.58946 17.243 3.44283 18.0014 1.22963 17.9999C0.841037 17.9999 0.440512 17.9866 0.0651855 17.9336C2.28832 19.4122 4.8991 20.2003 7.56906 20.1988Z" fill="white"/>
</svg>
