<svg width="25" height="25" viewBox="0 0 25 25" fill="none" xmlns="http://www.w3.org/2000/svg">
<path d="M12.0856 0.979004C5.49414 0.979004 0.149384 6.32376 0.149384 12.9019C0.149384 19.4933 5.49414 24.8513 12.0856 24.8513C18.677 24.8513 24.0217 19.4933 24.0217 12.9019C24.0217 6.32376 18.677 0.979004 12.0856 0.979004ZM17.9648 8.47359C17.8879 9.581 15.8401 17.8528 15.8401 17.8528C15.8401 17.8528 15.7128 18.3355 15.2672 18.3488C15.1588 18.354 15.0506 18.3363 14.9496 18.2968C14.8485 18.2572 14.757 18.1968 14.681 18.1193C14.2102 17.7255 13.1426 16.9615 12.136 16.2626C12.0988 16.2997 12.0604 16.3382 12.0086 16.3767C11.7805 16.5796 11.437 16.8727 11.067 17.2294C10.9277 17.3568 10.7752 17.496 10.6227 17.6485L10.6094 17.6618C10.5369 17.7338 10.4603 17.8015 10.38 17.8647C9.88399 18.2719 9.8336 17.9284 9.8336 17.7506L10.1002 14.8369V14.8104L10.1134 14.7852C10.1267 14.748 10.1519 14.7348 10.1519 14.7348C10.1519 14.7348 15.3561 10.1035 15.4966 9.6062C15.5086 9.581 15.4701 9.55581 15.4065 9.581C15.063 9.69506 9.06968 13.4881 8.40789 13.9072C8.36943 13.9337 8.25537 13.9205 8.25537 13.9205L5.34162 12.9656C5.34162 12.9656 4.9968 12.8263 5.11218 12.508C5.1387 12.4444 5.17584 12.3807 5.31642 12.2918C5.96495 11.833 17.2526 7.77466 17.2526 7.77466C17.2526 7.77466 17.5709 7.67254 17.7605 7.73488C17.8494 7.77466 17.9011 7.8118 17.9515 7.93912C17.9648 7.99084 17.978 8.09296 17.978 8.20702C17.978 8.27068 17.9648 8.34627 17.9648 8.47359Z" fill="white"/>
</svg>
