<svg width="64" height="64" viewBox="0 0 64 64" fill="none" xmlns="http://www.w3.org/2000/svg">
<path opacity="0.4" d="M54.6667 27.173H46.96C40.64 27.173 35.4934 22.0263 35.4934 15.7063V7.99967C35.4934 6.53301 34.2934 5.33301 32.8267 5.33301H21.52C13.3067 5.33301 6.66669 10.6663 6.66669 20.1863V43.813C6.66669 53.333 13.3067 58.6663 21.52 58.6663H42.48C50.6934 58.6663 57.3334 53.333 57.3334 43.813V29.8397C57.3334 28.373 56.1334 27.173 54.6667 27.173Z" fill="#446DFF"/>
<path d="M42.1333 5.89315C41.0399 4.79982 39.1466 5.54649 39.1466 7.06649V16.3732C39.1466 20.2665 42.4533 23.4932 46.4799 23.4932C49.0133 23.5198 52.5333 23.5198 55.5466 23.5198C57.0666 23.5198 57.8666 21.7332 56.7999 20.6665C52.9599 16.7998 46.0799 9.83982 42.1333 5.89315Z" fill="#446DFF"/>
<path d="M33.4667 37.3334L31.2 33.9201C30.64 33.0401 29.4667 32.4268 28.4267 32.4268H23.04C22 32.4268 20.8533 33.0401 20.2667 33.9201L18 37.3334C17.12 38.6134 17.3067 40.4534 18.4 41.5468L23.36 46.5068C24 47.1201 24.8533 47.4668 25.7333 47.4668C26.6133 47.4668 27.4667 47.1201 28.1067 46.5068L33.0667 41.5468C34.1333 40.4534 34.2933 38.6134 33.4667 37.3334Z" fill="#446DFF"/>
</svg>
