<svg width="13" height="13" viewBox="0 0 13 13" fill="none" xmlns="http://www.w3.org/2000/svg">
<g clip-path="url(#clip0_495_13997)">
<path d="M11.8946 2.91326C11.5081 3.08422 11.0982 3.19649 10.6786 3.24637C11.1209 2.98182 11.452 2.56547 11.6101 2.07491C11.1949 2.32196 10.7398 2.4951 10.2655 2.58875C9.94684 2.24783 9.5245 2.02173 9.06411 1.9456C8.60372 1.86947 8.13108 1.94758 7.71967 2.16778C7.30825 2.38798 6.98111 2.73794 6.7891 3.16324C6.5971 3.58855 6.55098 4.06537 6.65793 4.51959C5.81609 4.4774 4.99253 4.25863 4.24073 3.87749C3.48892 3.49636 2.82568 2.96138 2.29405 2.30728C2.10587 2.63049 2.00699 2.99792 2.00751 3.37192C2.00751 4.10598 2.38113 4.75449 2.94914 5.13418C2.61299 5.12359 2.28425 5.03282 1.9903 4.86941V4.89573C1.9904 5.38462 2.15958 5.85843 2.46914 6.23682C2.7787 6.61521 3.2096 6.87491 3.68877 6.97187C3.37673 7.05643 3.04953 7.06889 2.73196 7.00832C2.86706 7.42913 3.13038 7.79715 3.48505 8.06086C3.83972 8.32458 4.26799 8.47077 4.70988 8.47897C4.2707 8.82389 3.76784 9.07887 3.23005 9.22932C2.69226 9.37977 2.13009 9.42275 1.57568 9.3558C2.54348 9.9782 3.67009 10.3086 4.82075 10.3075C8.71533 10.3075 10.8451 7.08122 10.8451 4.28317C10.8451 4.19205 10.8426 4.09991 10.8385 4.0098C11.2531 3.71018 11.6109 3.33902 11.8951 2.91376L11.8946 2.91326Z" fill="#A6B0C3"/>
</g>
<defs>
<clipPath id="clip0_495_13997">
<rect width="12.15" height="12.15" fill="white" transform="translate(0.675049 0.0500488)"/>
</clipPath>
</defs>
</svg>
