<svg width="65" height="65" viewBox="0 0 65 65" fill="none" xmlns="http://www.w3.org/2000/svg">
<path d="M55.2733 51.5232C54.8733 51.9232 54.3667 52.1099 53.86 52.1099C53.3533 52.1099 52.8467 51.9232 52.4467 51.5232L39.2467 38.3232L40.66 36.9099L42.0733 35.4966L55.2733 48.6966C56.0466 49.4699 56.0466 50.7499 55.2733 51.5232Z" fill="#446DFF"/>
<path opacity="0.4" d="M17.7533 25.4967L33.22 40.9634C34.26 42.0034 34.26 43.6834 33.22 44.7234L30.82 47.1501C28.66 49.2834 25.2467 49.2834 23.1133 47.1501L11.54 35.5767C9.43333 33.4701 9.43333 30.0301 11.54 27.8967L13.9667 25.4701C15.0067 24.4568 16.7133 24.4567 17.7533 25.4967Z" fill="#446DFF"/>
<path d="M50.0733 27.9232L39.9133 38.0565C38.8467 39.1232 37.14 39.1232 36.0733 38.0565L20.6867 22.6698C19.62 21.6032 19.62 19.8965 20.6867 18.8298L30.8467 8.66984C32.9533 6.56318 36.3933 6.56318 38.5266 8.66984L50.1 20.2432C52.18 22.3498 52.18 25.7632 50.0733 27.9232Z" fill="#446DFF"/>
<path d="M21.8333 58.75H5.83334C4.74 58.75 3.83334 57.8433 3.83334 56.75C3.83334 55.6567 4.74 54.75 5.83334 54.75H21.8333C22.9267 54.75 23.8333 55.6567 23.8333 56.75C23.8333 57.8433 22.9267 58.75 21.8333 58.75Z" fill="#446DFF"/>
</svg>
