<svg width="16" height="17" viewBox="0 0 16 17" fill="none" xmlns="http://www.w3.org/2000/svg">
<path d="M12.36 3.24664L8.69337 1.87331C8.31337 1.73331 7.69337 1.73331 7.31337 1.87331L3.6467 3.24664C2.94003 3.51331 2.3667 4.33998 2.3667 5.09331V10.4933C2.3667 11.0333 2.72003 11.7466 3.15337 12.0666L6.82003 14.8066C7.4667 15.2933 8.5267 15.2933 9.17337 14.8066L12.84 12.0666C13.2734 11.74 13.6267 11.0333 13.6267 10.4933V5.09331C13.6334 4.33998 13.06 3.51331 12.36 3.24664ZM10.32 6.97998L7.45337 9.84664C7.35337 9.94664 7.2267 9.99331 7.10003 9.99331C6.97337 9.99331 6.8467 9.94664 6.7467 9.84664L5.68003 8.76664C5.4867 8.57331 5.4867 8.25331 5.68003 8.05998C5.87337 7.86664 6.19337 7.86664 6.3867 8.05998L7.1067 8.77998L9.62003 6.26664C9.81337 6.07331 10.1334 6.07331 10.3267 6.26664C10.52 6.45998 10.52 6.78664 10.32 6.97998Z" fill="#446DFF"/>
</svg>
