<svg width="64" height="64" viewBox="0 0 64 64" fill="none" xmlns="http://www.w3.org/2000/svg">
<path d="M41.5733 4.6665C33.6533 4.6665 27.2267 11.0932 27.2267 19.0132C27.2267 26.9332 33.6533 33.3598 41.5733 33.3598C49.4933 33.3598 55.92 26.9332 55.92 19.0132C55.92 11.0932 49.4933 4.6665 41.5733 4.6665Z" fill="#446DFF"/>
<path opacity="0.4" d="M16.96 34.7466C12.08 34.7466 8.07999 38.7199 8.07999 43.6266C8.07999 48.5333 12.0533 52.5066 16.96 52.5066C21.84 52.5066 25.84 48.5333 25.84 43.6266C25.84 38.7199 21.84 34.7466 16.96 34.7466Z" fill="#446DFF"/>
<path opacity="0.4" d="M44.32 44.3198C40.1867 44.3198 36.8267 47.6798 36.8267 51.8132C36.8267 55.9465 40.1867 59.3065 44.32 59.3065C48.4533 59.3065 51.8133 55.9465 51.8133 51.8132C51.8133 47.6798 48.4533 44.3198 44.32 44.3198Z" fill="#446DFF"/>
</svg>
