<svg width="13" height="13" viewBox="0 0 13 13" fill="none" xmlns="http://www.w3.org/2000/svg">
<path d="M6.77121 8.60875L5.7258 9.62581C5.54456 9.80198 5.24132 9.72402 5.16791 9.48203L4.47131 7.18872" stroke="#A6B0C3" stroke-width="0.759375" stroke-linecap="round" stroke-linejoin="round"/>
<path d="M7.94008 5.58192C7.94008 5.58192 6.6294 6.76452 5.9571 7.37151C5.75612 7.55275 5.77282 7.87169 5.99051 8.03217L8.89993 10.1751C9.16774 10.3731 9.33683 10.5012 9.40618 10.1751L10.9249 3.08758C10.9897 2.78282 10.7093 2.72264 10.4187 2.83452L2.06556 6.12513C1.8342 6.21423 1.82914 6.30434 2.06556 6.37826L4.47075 7.18825" stroke="#A6B0C3" stroke-width="0.759375" stroke-linecap="round" stroke-linejoin="round"/>
<path d="M10.4188 3.08765L2.5719 6.12515L4.34377 7.13765L5.35627 9.92202L6.6219 8.6564L9.15315 10.1751L10.925 3.5939L10.4188 3.08765Z" fill="#A6B0C3"/>
<path d="M7.88748 5.87183C7.88748 5.87183 6.62186 6.93406 6.11561 7.39058C5.60936 7.84709 7.63436 10.175 8.89998 10.9343" stroke="#F5F7F9" stroke-width="0.50625" stroke-linecap="round" stroke-linejoin="round"/>
</svg>
