<svg width="20" height="20" viewBox="0 0 20 20" fill="none" xmlns="http://www.w3.org/2000/svg">
<path d="M6.90973 17.121C6.88576 17.121 6.85379 17.137 6.82981 17.137C5.27928 16.3698 4.01648 15.099 3.24121 13.5484C3.24121 13.5245 3.2572 13.4925 3.2572 13.4685C4.23227 13.7562 5.23932 13.972 6.23837 14.1399C6.4142 15.1469 6.62201 16.146 6.90973 17.121Z" fill="white"/>
<path d="M17.5317 13.5564C16.7404 15.1469 15.4217 16.4337 13.8152 17.209C14.1189 16.1939 14.3747 15.1709 14.5425 14.1399C15.5495 13.972 16.5406 13.7562 17.5157 13.4685C17.5077 13.5005 17.5317 13.5324 17.5317 13.5564Z" fill="white"/>
<path d="M17.5956 6.57119C16.5886 6.26748 15.5735 6.01971 14.5425 5.84388C14.3747 4.81286 14.1269 3.78982 13.8152 2.79077C15.4696 3.58202 16.8044 4.91676 17.5956 6.57119Z" fill="white"/>
<path d="M6.90971 2.87871C6.62198 3.85379 6.41418 4.84485 6.24634 5.8519C5.21531 6.01174 4.19228 6.2675 3.17725 6.57121C3.95251 4.96474 5.23929 3.64599 6.82978 2.85474C6.85376 2.85474 6.88573 2.87871 6.90971 2.87871Z" fill="white"/>
<path d="M13.1756 5.67585C11.3214 5.46804 9.45117 5.46804 7.59692 5.67585C7.79673 4.58088 8.05249 3.48592 8.41215 2.43092C8.42814 2.36698 8.42014 2.31903 8.42814 2.25509C9.05954 2.10323 9.70692 2.00732 10.3863 2.00732C11.0576 2.00732 11.713 2.10323 12.3364 2.25509C12.3444 2.31903 12.3444 2.36698 12.3604 2.43092C12.7201 3.49392 12.9758 4.58088 13.1756 5.67585Z" fill="white"/>
<path d="M6.06232 12.7892C4.95937 12.5894 3.8724 12.3336 2.8174 11.9739C2.75346 11.9579 2.7055 11.9659 2.64156 11.9579C2.48971 11.3265 2.3938 10.6792 2.3938 9.99981C2.3938 9.32844 2.48971 8.67306 2.64156 8.04965C2.7055 8.04166 2.75346 8.04166 2.8174 8.02568C3.88039 7.67401 4.95937 7.41026 6.06232 7.21045C5.86251 9.06469 5.86251 10.9349 6.06232 12.7892Z" fill="white"/>
<path d="M18.3787 9.99981C18.3787 10.6792 18.2828 11.3265 18.131 11.9579C18.067 11.9659 18.0191 11.9579 17.9551 11.9739C16.8921 12.3256 15.8052 12.5894 14.7102 12.7892C14.918 10.9349 14.918 9.06469 14.7102 7.21045C15.8052 7.41026 16.9001 7.66602 17.9551 8.02568C18.0191 8.04166 18.067 8.04965 18.131 8.04965C18.2828 8.68106 18.3787 9.32844 18.3787 9.99981Z" fill="white"/>
<path d="M13.1756 14.3237C12.9758 15.4267 12.7201 16.5137 12.3604 17.5687C12.3444 17.6326 12.3444 17.6805 12.3364 17.7445C11.713 17.8963 11.0576 17.9923 10.3863 17.9923C9.70692 17.9923 9.05954 17.8963 8.42814 17.7445C8.42014 17.6805 8.42814 17.6326 8.41215 17.5687C8.06048 16.5057 7.79673 15.4267 7.59692 14.3237C8.52405 14.4276 9.45117 14.4996 10.3863 14.4996C11.3214 14.4996 12.2565 14.4276 13.1756 14.3237Z" fill="white"/>
<path d="M13.3942 13.0078C11.3953 13.26 9.37759 13.26 7.37861 13.0078C7.1264 11.0088 7.1264 8.99112 7.37861 6.99213C9.37759 6.73993 11.3953 6.73993 13.3942 6.99213C13.6464 8.99112 13.6464 11.0088 13.3942 13.0078Z" fill="white"/>
</svg>
