<svg width="20" height="20" viewBox="0 0 20 20" fill="none" xmlns="http://www.w3.org/2000/svg">
<path d="M9.95035 13.9214L8.29989 15.5271C8.01376 15.8052 7.535 15.6821 7.41911 15.3001L6.31934 11.6794" stroke="white" stroke-width="1.19888" stroke-linecap="round" stroke-linejoin="round"/>
<path d="M11.7956 9.1425C11.7956 9.1425 9.72638 11.0096 8.66497 11.9679C8.34766 12.254 8.37404 12.7575 8.71772 13.0109L13.311 16.3942C13.7338 16.7067 14.0008 16.9089 14.1103 16.3942L16.5081 5.2045C16.6104 4.72334 16.1676 4.62834 15.7088 4.80498L2.52109 10.0001C2.15583 10.1408 2.14784 10.283 2.52109 10.3997L6.31835 11.6785" stroke="white" stroke-width="1.19888" stroke-linecap="round" stroke-linejoin="round"/>
<path d="M15.7088 5.20386L3.32031 9.99939L6.11771 11.5979L7.71622 15.9938L9.71436 13.9957L13.7106 16.3934L16.508 6.00311L15.7088 5.20386Z" fill="white"/>
<path d="M11.7121 9.60034C11.7121 9.60034 9.71398 11.2774 8.91473 11.9981C8.11548 12.7188 11.3125 16.394 13.3106 17.5929" stroke="#446DFF" stroke-width="0.799255" stroke-linecap="round" stroke-linejoin="round"/>
</svg>
