<svg xmlns="http://www.w3.org/2000/svg" width="20" height="20" viewBox="0 0 20 20" fill="none">
<g clip-path="url(#clip0_3420_36793)">
<path d="M17.8719 4.92989C17.2617 5.19979 16.6147 5.37705 15.9521 5.45579C16.6504 5.03814 17.1731 4.38082 17.4227 3.60635C16.7673 3.99638 16.0488 4.26972 15.2999 4.41758C14.7969 3.87935 14.1301 3.5224 13.4033 3.40221C12.6765 3.28202 11.9303 3.40533 11.2808 3.75297C10.6312 4.10061 10.1148 4.6531 9.81162 5.32455C9.50849 5.996 9.43569 6.74879 9.60453 7.46589C8.27547 7.39928 6.97529 7.0539 5.78837 6.45218C4.60146 5.85046 3.55436 5.00586 2.71506 3.9732C2.41797 4.48348 2.26185 5.06355 2.26269 5.65401C2.26269 6.81291 2.85253 7.83674 3.74928 8.43617C3.21859 8.41946 2.69958 8.27615 2.23551 8.01817V8.05973C2.23567 8.83155 2.50275 9.57958 2.99147 10.177C3.48019 10.7744 4.16047 11.1843 4.91697 11.3374C4.42433 11.4709 3.90777 11.4906 3.4064 11.395C3.61969 12.0593 4.03541 12.6403 4.59535 13.0567C5.15529 13.473 5.83141 13.7038 6.52904 13.7168C5.83568 14.2613 5.04179 14.6639 4.19276 14.9014C3.34373 15.1389 2.4562 15.2068 1.58093 15.1011C3.10884 16.0837 4.88748 16.6053 6.70408 16.6036C12.8526 16.6036 16.2151 11.5101 16.2151 7.09264C16.2151 6.94878 16.2111 6.80332 16.2047 6.66105C16.8591 6.18803 17.424 5.60207 17.8727 4.93069L17.8719 4.92989Z" fill="white"/>
</g>
<defs>
<clipPath id="clip0_3420_36793">
<rect width="19.1818" height="19.1818" fill="white" transform="translate(0.159058 0.40918)"/>
</clipPath>
</defs>
</svg>